<svg width="32" height="32" viewBox="0 0 32 32" fill="none" xmlns="http://www.w3.org/2000/svg">
<g clip-path="url(#clip0_1_960)" filter="url(#filter0_d_1_960)">
<path d="M22.75 24C24.1424 24 25.4777 23.4469 26.4623 22.4623C27.4469 21.4777 28 20.1424 28 18.75C28 17.3576 27.4469 16.0223 26.4623 15.0377C25.4777 14.0531 24.1424 13.5 22.75 13.5C21.3576 13.5 20.0223 14.0531 19.0377 15.0377C18.0531 16.0223 17.5 17.3576 17.5 18.75C17.5 20.1424 18.0531 21.4777 19.0377 22.4623C20.0223 23.4469 21.3576 24 22.75 24ZM23.5 16.5V18H25C25.1989 18 25.3897 18.079 25.5303 18.2197C25.671 18.3603 25.75 18.5511 25.75 18.75C25.75 18.9489 25.671 19.1397 25.5303 19.2803C25.3897 19.421 25.1989 19.5 25 19.5H23.5V21C23.5 21.1989 23.421 21.3897 23.2803 21.5303C23.1397 21.671 22.9489 21.75 22.75 21.75C22.5511 21.75 22.3603 21.671 22.2197 21.5303C22.079 21.3897 22 21.1989 22 21V19.5H20.5C20.3011 19.5 20.1103 19.421 19.9697 19.2803C19.829 19.1397 19.75 18.9489 19.75 18.75C19.75 18.5511 19.829 18.3603 19.9697 18.2197C20.1103 18.079 20.3011 18 20.5 18H22V16.5C22 16.3011 22.079 16.1103 22.2197 15.9697C22.3603 15.829 22.5511 15.75 22.75 15.75C22.9489 15.75 23.1397 15.829 23.2803 15.9697C23.421 16.1103 23.5 16.3011 23.5 16.5Z" fill="#1D3A76"/>
<path d="M17.0605 2.25021C16.7792 1.96901 16.3977 1.81104 16 1.81104C15.6022 1.81104 15.2208 1.96901 14.9395 2.25021L4.96897 12.2192C4.89924 12.2889 4.84392 12.3717 4.80619 12.4628C4.76845 12.5539 4.74902 12.6516 4.74902 12.7502C4.74902 12.8488 4.76845 12.9465 4.80619 13.0376C4.84392 13.1287 4.89924 13.2115 4.96897 13.2812C5.1098 13.422 5.30081 13.5012 5.49997 13.5012C5.59859 13.5012 5.69624 13.4817 5.78735 13.444C5.87845 13.4063 5.96124 13.3509 6.03097 13.2812L16 3.31071L25.969 13.2812C26.1098 13.422 26.3008 13.5012 26.5 13.5012C26.6991 13.5012 26.8901 13.422 27.031 13.2812C27.1718 13.1404 27.2509 12.9494 27.2509 12.7502C27.2509 12.551 27.1718 12.36 27.031 12.2192L23.5 8.68971V3.75021C23.5 3.5513 23.4209 3.36054 23.2803 3.21988C23.1396 3.07923 22.9489 3.00021 22.75 3.00021H21.25C21.0511 3.00021 20.8603 3.07923 20.7196 3.21988C20.579 3.36054 20.5 3.5513 20.5 3.75021V5.68971L17.0605 2.25021Z" fill="#1D3A76"/>
<path d="M7.75 14.2506L16 6.0006L21.3766 11.3772C20.5909 11.5234 19.83 11.7951 19.1239 12.185C17.9086 12.8561 16.9035 13.8513 16.2204 15.0598C15.5373 16.2683 15.203 17.6427 15.2547 19.0299C15.2898 19.9715 15.5018 20.894 15.8756 21.7504H9.25C8.85218 21.7504 8.47064 21.5924 8.18934 21.3111C7.90804 21.0298 7.75 20.6483 7.75 20.2504V14.2506Z" stroke="#1D3A76" stroke-width="1.5"/>
</g>
<defs>
<filter id="filter0_d_1_960" x="0" y="0" width="32" height="32" filterUnits="userSpaceOnUse" color-interpolation-filters="sRGB">
<feFlood flood-opacity="0" result="BackgroundImageFix"/>
<feColorMatrix in="SourceAlpha" type="matrix" values="0 0 0 0 0 0 0 0 0 0 0 0 0 0 0 0 0 0 127 0" result="hardAlpha"/>
<feOffset dy="4"/>
<feGaussianBlur stdDeviation="2"/>
<feComposite in2="hardAlpha" operator="out"/>
<feColorMatrix type="matrix" values="0 0 0 0 0 0 0 0 0 0 0 0 0 0 0 0 0 0 0.25 0"/>
<feBlend mode="normal" in2="BackgroundImageFix" result="effect1_dropShadow_1_960"/>
<feBlend mode="normal" in="SourceGraphic" in2="effect1_dropShadow_1_960" result="shape"/>
</filter>
<clipPath id="clip0_1_960">
<rect width="24" height="24" fill="white" transform="translate(4)"/>
</clipPath>
</defs>
</svg>
