<svg width="33" height="38" viewBox="0 0 33 38" fill="none" xmlns="http://www.w3.org/2000/svg">
<path d="M16.5 33.6796C16.2355 33.6801 15.9713 33.6614 15.7092 33.6235C13.2878 29.421 11.9468 24.5949 11.8246 19.6435H32.9411C32.9694 19.2212 33 18.7976 33 18.3675C33 14.8343 32.0323 11.3805 30.2193 8.44277C28.4062 5.50503 25.8293 3.21534 22.8143 1.86325C19.7993 0.511158 16.4817 0.157389 13.281 0.84668C10.0803 1.53597 7.14031 3.23736 4.83274 5.7357C2.52518 8.23404 0.953706 11.4171 0.31705 14.8824C-0.319606 18.3477 0.00714917 21.9396 1.25599 25.2038C2.50484 28.4681 4.61969 31.2581 7.3331 33.221C10.0465 35.1839 13.2366 36.2316 16.5 36.2316V33.6796ZM30.5839 17.0915H23.5278C23.4021 12.3961 22.2926 7.79292 20.2832 3.62964C23.063 4.46909 25.5393 6.2084 27.3804 8.61445C29.2214 11.0205 30.3392 13.9783 30.5839 17.0915ZM17.2896 3.11159C19.7114 7.3139 21.0529 12.1401 21.1754 17.0915H11.8246C11.9471 12.1401 13.2886 7.3139 15.7104 3.11159C16.2354 3.03762 16.767 3.03762 17.292 3.11159M12.718 3.62837C10.708 7.79192 9.5981 12.3955 9.47218 17.0915H2.41608C2.66079 13.9783 3.77858 11.0205 5.61963 8.61445C7.46069 6.2084 9.93704 4.46909 12.7168 3.62964M2.41608 19.6435H9.47218C9.59791 24.339 10.7074 28.9422 12.7168 33.1054C9.93704 32.266 7.46069 30.5267 5.61963 28.1206C3.77858 25.7146 2.66079 22.7567 2.41608 19.6435Z" fill="#878787"/>
<path fill-rule="evenodd" clip-rule="evenodd" d="M27.1074 29.8514L33.0003 32.4034V29.8514L27.1074 26.6613V23.4713C27.1074 23.1329 26.9833 22.8083 26.7622 22.569C26.5412 22.3297 26.2414 22.1953 25.9288 22.1953C25.6163 22.1953 25.3165 22.3297 25.0955 22.569C24.8744 22.8083 24.7503 23.1329 24.7503 23.4713V26.6613L18.8574 29.8514V32.4034L24.7503 29.8514V34.3174L22.3931 36.2314V37.5074L25.9288 36.2314L29.4646 37.5074V36.2314L27.1074 34.3174V29.8514Z" fill="#878787"/>
</svg>
