<svg width="16" height="16" viewBox="0 0 16 16" fill="none" xmlns="http://www.w3.org/2000/svg">
<path d="M1 15.3698H15H1ZM5.66667 5.2575H6.44444H5.66667ZM5.66667 8.36896H6.44444H5.66667ZM5.66667 11.4804H6.44444H5.66667ZM9.55556 5.2575H10.3333H9.55556ZM9.55556 8.36896H10.3333H9.55556ZM9.55556 11.4804H10.3333H9.55556ZM2.55556 15.3698V2.9239C2.55556 2.51129 2.71944 2.11558 3.01117 1.82383C3.30289 1.53207 3.69855 1.36816 4.11111 1.36816H11.8889C12.3014 1.36816 12.6971 1.53207 12.9888 1.82383C13.2806 2.11558 13.4444 2.51129 13.4444 2.9239V15.3698" fill="white"/>
<path d="M1 15.3698H15M5.66667 5.2575H6.44444M5.66667 8.36896H6.44444M5.66667 11.4804H6.44444M9.55556 5.2575H10.3333M9.55556 8.36896H10.3333M9.55556 11.4804H10.3333M2.55556 15.3698V2.9239C2.55556 2.51129 2.71944 2.11558 3.01117 1.82383C3.30289 1.53207 3.69855 1.36816 4.11111 1.36816H11.8889C12.3014 1.36816 12.6971 1.53207 12.9888 1.82383C13.2806 2.11558 13.4444 2.51129 13.4444 2.9239V15.3698" stroke="#492828" stroke-linecap="round" stroke-linejoin="round"/>
</svg>
