<svg width="21" height="22" viewBox="0 0 21 22" fill="none" xmlns="http://www.w3.org/2000/svg">
<path d="M4.16667 17.8555H14.5833V11.8974C14.5833 11.3924 14.73 10.8987 15.0047 10.4788C15.2794 10.0589 15.6698 9.73157 16.1266 9.5383C16.5834 9.34503 17.0861 9.29447 17.5711 9.39299C18.056 9.49152 18.5015 9.73472 18.8511 10.0918C19.2007 10.4489 19.4388 10.9039 19.5353 11.3993C19.6318 11.8946 19.5823 12.408 19.393 12.8746C19.2038 13.3412 18.8834 13.74 18.4723 14.0206C18.0611 14.3011 17.5778 14.4509 17.0833 14.4509H16.6667M0 20.409H20M12.5 9.34393H2.08333V9.55672L2.13583 9.64184C3.73467 12.2275 4.5833 15.223 4.58333 18.2811M4.58333 0.406738V1.2579C4.58333 2.72522 5.15402 4.13245 6.16984 5.17C7.18566 6.20755 8.56341 6.79045 10 6.79045M12.0833 7.21603V4.23696H10C9.22645 4.23696 8.48459 3.9231 7.93761 3.36442C7.39062 2.80573 7.08333 2.048 7.08333 1.2579V0.406738" stroke="#492828" stroke-width="2"/>
</svg>
