<svg width="20" height="21" viewBox="0 0 20 21" fill="none" xmlns="http://www.w3.org/2000/svg">
<path d="M10 11.1772C9.62112 11.1772 9.25776 11.3393 8.98985 11.6279C8.72194 11.9164 8.57143 12.3078 8.57143 12.7158C8.57143 13.1239 8.72194 13.5153 8.98985 13.8038C9.25776 14.0924 9.62112 14.2545 10 14.2545C10.3789 14.2545 10.7422 14.0924 11.0102 13.8038C11.2781 13.5153 11.4286 13.1239 11.4286 12.7158C11.4286 12.3078 11.2781 11.9164 11.0102 11.6279C10.7422 11.3393 10.3789 11.1772 10 11.1772ZM5.71429 12.7158C5.71429 11.4916 6.16582 10.3175 6.96954 9.45189C7.77327 8.58624 8.86336 8.09992 10 8.09992C11.1366 8.09992 12.2267 8.58624 13.0305 9.45189C13.8342 10.3175 14.2857 11.4916 14.2857 12.7158C14.2857 13.9401 13.8342 15.1141 13.0305 15.9798C12.2267 16.8454 11.1366 17.3317 10 17.3317C8.86336 17.3317 7.77327 16.8454 6.96954 15.9798C6.16582 15.1141 5.71429 13.9401 5.71429 12.7158ZM10 9.63856C9.24224 9.63856 8.51551 9.96277 7.97969 10.5399C7.44388 11.117 7.14286 11.8997 7.14286 12.7158C7.14286 13.532 7.44388 14.3147 7.97969 14.8918C8.51551 15.4689 9.24224 15.7931 10 15.7931C10.7578 15.7931 11.4845 15.4689 12.0203 14.8918C12.5561 14.3147 12.8571 13.532 12.8571 12.7158C12.8571 11.8997 12.5561 11.117 12.0203 10.5399C11.4845 9.96277 10.7578 9.63856 10 9.63856ZM2.94624e-07 2.71469C2.94624e-07 2.10259 0.225765 1.51555 0.627629 1.08272C1.02949 0.649897 1.57454 0.406738 2.14286 0.406738H17.8571C18.4255 0.406738 18.9705 0.649897 19.3724 1.08272C19.7742 1.51555 20 2.10259 20 2.71469V4.25333C20.0002 4.73081 19.863 5.19661 19.6071 5.58655C19.3512 5.97648 18.9894 6.27134 18.5714 6.4305V11.1772C18.5714 13.6256 17.6684 15.9738 16.0609 17.7051C14.4535 19.4364 12.2733 20.409 10 20.409C7.72672 20.409 5.54654 19.4364 3.93909 17.7051C2.33163 15.9738 1.42857 13.6256 1.42857 11.1772V6.4305C1.0106 6.27134 0.648755 5.97648 0.392897 5.58655C0.13704 5.19661 -0.000232114 4.73081 2.94624e-07 4.25333V2.71469ZM2.14286 5.02265H17.8571C18.0466 5.02265 18.2283 4.9416 18.3622 4.79732C18.4962 4.65305 18.5714 4.45737 18.5714 4.25333V2.71469C18.5714 2.51066 18.4962 2.31498 18.3622 2.1707C18.2283 2.02643 18.0466 1.94538 17.8571 1.94538H2.14286C1.95342 1.94538 1.77174 2.02643 1.63778 2.1707C1.50383 2.31498 1.42857 2.51066 1.42857 2.71469V4.25333C1.42857 4.45737 1.50383 4.65305 1.63778 4.79732C1.77174 4.9416 1.95342 5.02265 2.14286 5.02265ZM2.85714 6.56129V11.1772C2.85714 13.2176 3.60969 15.1744 4.94924 16.6171C6.28878 18.0599 8.1056 18.8704 10 18.8704C11.8944 18.8704 13.7112 18.0599 15.0508 16.6171C16.3903 15.1744 17.1429 13.2176 17.1429 11.1772V6.56129H2.85714Z" fill="#492828"/>
</svg>
