<svg width="20" height="21" viewBox="0 0 20 21" fill="none" xmlns="http://www.w3.org/2000/svg">
<path d="M19.22 9.21993L11.0013 0.84097C10.735 0.569606 10.3797 0.419922 10.0003 0.419922C9.621 0.419922 9.26567 0.569606 8.99967 0.84097L0.780667 9.21959C0.335667 9.67298 0 10.4977 0 11.1385V18.9867C0 19.7781 0.633667 20.4222 1.413 20.4222H18.588C19.3667 20.4222 20 19.7781 20 18.9867V11.1385C20 10.4974 19.6647 9.67265 19.22 9.21993ZM18.9513 18.9867C18.9513 19.1904 18.785 19.3628 18.5877 19.3628H1.413C1.21533 19.3628 1.04867 19.1904 1.04867 18.9867V11.1385C1.04867 10.7788 1.27567 10.2197 1.52533 9.96535L9.74433 1.58672C9.81233 1.51738 9.90333 1.47938 10.0003 1.47938C10.0977 1.47938 10.188 1.51738 10.2567 1.58706L18.4757 9.96635C18.725 10.22 18.9517 10.7791 18.9517 11.1391L18.9513 18.9867Z" fill="#492828"/>
<path d="M11.6553 8.69791C12.5793 8.69791 13.3263 7.94224 13.3263 7.01024C13.3263 6.07824 12.5797 5.32324 11.6553 5.32324C10.7343 5.32324 9.98633 6.07824 9.98633 7.01024C9.98633 7.94224 10.7343 8.69791 11.6553 8.69791Z" fill="#492828"/>
<path d="M7.60014 9.75123C8.34904 9.75123 8.95614 9.13786 8.95614 8.38123C8.95614 7.6246 8.34904 7.01123 7.60014 7.01123C6.85124 7.01123 6.24414 7.6246 6.24414 8.38123C6.24414 9.13786 6.85124 9.75123 7.60014 9.75123Z" fill="#492828"/>
<path d="M14.7126 14.1048L15.2496 12.7383L13.9803 12.2289L14.7913 10.6097C14.8202 10.5516 14.8328 10.4867 14.8276 10.422C14.8224 10.3572 14.7997 10.2951 14.7619 10.2423L13.6916 8.75751C13.6819 8.74351 13.6669 8.73584 13.6553 8.7235C13.6473 8.71484 13.6436 8.70283 13.6346 8.6955C13.6279 8.68983 13.6193 8.68917 13.6129 8.68417C13.5851 8.66419 13.5544 8.64846 13.5219 8.63749C13.5073 8.63249 13.4943 8.62516 13.4789 8.62183C13.4296 8.61055 13.3783 8.61043 13.3289 8.62149L10.9316 9.19089C10.8628 9.20798 10.8009 9.24574 10.7543 9.29909C10.7076 9.35243 10.6784 9.4188 10.6706 9.48926C10.6683 9.49326 10.6643 9.49592 10.6623 9.49993L9.75728 11.3885L9.03428 10.2407C9.01428 10.2093 8.98828 10.1873 8.96161 10.1643C8.9495 10.1256 8.93053 10.0894 8.90561 10.0573C8.87299 10.0183 8.83221 9.98684 8.78614 9.96524C8.74007 9.94364 8.68982 9.9324 8.63894 9.93231H6.55961C6.55128 9.93231 6.54394 9.93731 6.53561 9.93798C6.46589 9.92792 6.39476 9.93935 6.3317 9.97074C6.26864 10.0021 6.21663 10.052 6.18261 10.1137L5.42661 11.4835L4.07994 12.4913C4.00539 12.5476 3.95596 12.6309 3.9423 12.7233C3.92865 12.8158 3.95186 12.9099 4.00694 12.9853C4.03407 13.0225 4.06829 13.0538 4.10762 13.0777C4.14695 13.1015 4.19061 13.1173 4.23608 13.1241C4.28155 13.131 4.32793 13.1288 4.37253 13.1176C4.41713 13.1064 4.45908 13.0865 4.49594 13.059L5.90328 12.0055C5.94294 11.9755 5.97628 11.9375 6.00028 11.8935L6.34728 11.2645L6.52228 12.4796L5.48994 14.5632C5.43528 14.6732 5.44128 14.8042 5.50594 14.9082C5.56961 15.0116 5.68161 15.0742 5.80261 15.0742H5.80628L5.88628 15.0732L5.68794 15.4893C5.66729 15.5319 5.6556 15.5783 5.65361 15.6256L5.54828 17.8489C5.5458 17.895 5.55244 17.9411 5.56781 17.9846C5.58318 18.0281 5.60698 18.0682 5.63785 18.1025C5.66872 18.1368 5.70605 18.1647 5.74771 18.1845C5.78936 18.2044 5.83452 18.2159 5.88061 18.2183L5.89794 18.2189C6.08328 18.2189 6.23761 18.0719 6.24661 17.8825L6.34861 15.7306L6.66561 15.0656L7.69228 15.0552L7.73894 15.4433C7.74461 15.4889 7.75894 15.5336 7.78094 15.5736L9.06594 17.8875C9.13028 18.0029 9.24894 18.0679 9.37128 18.0679C9.42928 18.0679 9.48794 18.0532 9.54194 18.0226C9.71061 17.9272 9.77028 17.7115 9.67561 17.5418L8.42461 15.2889L8.39561 15.0476L9.14794 15.0402C9.26394 15.0389 9.37194 14.9796 9.43561 14.8819C9.49961 14.7842 9.51161 14.6605 9.46728 14.5522L9.21494 13.9348L9.88028 14.1251L10.1506 13.1593L9.49861 12.9727L9.77028 12.1622L10.1603 11.9815C10.2339 11.9469 10.2936 11.8882 10.3289 11.8142L10.7426 10.9508L10.8726 13.203C10.8733 13.208 10.8759 13.2117 10.8763 13.2167L10.1743 14.6282C10.1325 14.7121 10.1136 14.8056 10.1196 14.8992L10.3113 18.0079C10.319 18.1415 10.3773 18.2672 10.4743 18.3594C10.5713 18.4516 10.6998 18.5034 10.8336 18.5043C10.8446 18.5043 10.8556 18.5043 10.8669 18.5036C11.0065 18.494 11.1365 18.4294 11.2285 18.324C11.3206 18.2187 11.3671 18.0811 11.3579 17.9416L11.1749 14.9759L11.8909 13.5357H12.3056L12.2309 14.8665C12.2246 14.9752 12.2519 15.0832 12.3086 15.1759L14.0389 17.9936C14.0749 18.0524 14.1222 18.1035 14.1781 18.144C14.2339 18.1845 14.2972 18.2135 14.3643 18.2294C14.4315 18.2453 14.5011 18.2478 14.5691 18.2366C14.6372 18.2255 14.7024 18.201 14.7609 18.1646C14.8792 18.0895 14.9632 17.9709 14.9947 17.8344C15.0263 17.698 15.0029 17.5545 14.9296 17.4352L13.2866 14.7602L13.3539 13.5587L14.7126 14.1048ZM13.6976 9.96565L14.0706 10.4834L13.6089 11.4061L13.6976 9.96565ZM9.15961 11.7822V11.7835L8.82461 12.7803L8.73194 12.754L8.62728 12.4969L8.83494 11.2398L9.16561 11.7648L9.15961 11.7822Z" fill="#492828"/>
</svg>
