<svg width="41" height="42" viewBox="0 0 41 42" fill="none" xmlns="http://www.w3.org/2000/svg">
<path d="M26.1862 18.598C25.93 18.5981 25.6742 18.6169 25.4212 18.6543C25.7376 17.9695 25.8669 17.2219 25.7975 16.4788C25.7282 15.7357 25.4624 15.0204 25.024 14.3971C24.5856 13.7738 23.9883 13.2622 23.2859 12.9081C22.5835 12.554 21.798 12.3687 21 12.3687C20.202 12.3687 19.4165 12.554 18.7141 12.9081C18.0117 13.2622 17.4145 13.7738 16.976 14.3971C16.5376 15.0204 16.2718 15.7357 16.2025 16.4788C16.1331 17.2219 16.2624 17.9695 16.5788 18.6543C16.3258 18.6169 16.07 18.5981 15.8138 18.598C15.0501 18.5983 14.2973 18.7684 13.6178 19.0942C12.9382 19.4201 12.3513 19.8923 11.9055 20.472C11.4597 21.0516 11.1678 21.7221 11.0539 22.428C10.94 23.1339 11.0073 23.855 11.2504 24.5318C11.4934 25.2086 11.9052 25.8217 12.4517 26.3203C12.9982 26.819 13.6638 27.1891 14.3935 27.3999C15.1232 27.6107 15.8961 27.6563 16.6484 27.5329C17.4006 27.4094 18.1107 27.1205 18.7199 26.69L17.6818 29.9249C17.6652 29.9766 17.6617 30.0312 17.6717 30.0844C17.6817 30.1375 17.7049 30.1878 17.7393 30.2311C17.7738 30.2744 17.8186 30.3096 17.8702 30.3338C17.9218 30.3581 17.9787 30.3707 18.0365 30.3707H23.9635C24.0213 30.3707 24.0782 30.3581 24.1298 30.3338C24.1814 30.3096 24.2262 30.2744 24.2607 30.2311C24.2951 30.1878 24.3183 30.1375 24.3283 30.0844C24.3383 30.0312 24.3348 29.9766 24.3182 29.9249L23.2801 26.69C23.8893 27.1205 24.5994 27.4094 25.3516 27.5329C26.1039 27.6563 26.8768 27.6107 27.6065 27.3999C28.3362 27.1891 29.0018 26.819 29.5483 26.3203C30.0948 25.8217 30.5066 25.2086 30.7496 24.5318C30.9927 23.855 31.06 23.1339 30.9461 22.428C30.8322 21.7221 30.5403 21.0516 30.0945 20.472C29.6487 19.8923 29.0618 19.4201 28.3822 19.0942C27.7027 18.7684 26.9499 18.5983 26.1862 18.598ZM26.1862 26.9082C25.5119 26.9088 24.8479 26.7528 24.2542 26.454C23.6604 26.1553 23.1554 25.7233 22.7846 25.1968C22.7357 25.1272 22.6616 25.0764 22.5758 25.0537C22.4901 25.0311 22.3985 25.0381 22.3178 25.0734C22.2371 25.1087 22.1728 25.1701 22.1366 25.2461C22.1003 25.3222 22.0947 25.408 22.1206 25.4876L23.4653 29.6782H18.5347L19.8794 25.4876C19.9053 25.408 19.8997 25.3222 19.8634 25.2461C19.8272 25.1701 19.7629 25.1087 19.6822 25.0734C19.6015 25.0381 19.5099 25.0311 19.4242 25.0537C19.3384 25.0764 19.2643 25.1272 19.2154 25.1968C18.7944 25.793 18.2024 26.2666 17.5071 26.5633C16.8119 26.8601 16.0413 26.9681 15.2835 26.875C14.5257 26.7819 13.8112 26.4914 13.2216 26.0368C12.632 25.5822 12.1911 24.9818 11.9492 24.3041C11.7073 23.6264 11.6742 22.8988 11.8536 22.2043C12.0331 21.5099 12.4179 20.8766 12.9641 20.3769C13.5103 19.8771 14.1958 19.531 14.9424 19.3781C15.689 19.2252 16.4666 19.2716 17.1863 19.5121C17.2597 19.5366 17.3395 19.5387 17.4144 19.5182C17.4892 19.4978 17.5552 19.4558 17.603 19.3983C17.6508 19.3408 17.678 19.2706 17.6806 19.1978C17.6833 19.125 17.6613 19.0532 17.6179 18.9928C17.2051 18.4197 16.9669 17.7524 16.9287 17.0625C16.8906 16.3726 17.0539 15.686 17.4011 15.0761C17.7484 14.4663 18.2666 13.9562 18.9002 13.6005C19.5339 13.2449 20.259 13.057 20.9981 13.057C21.7373 13.057 22.4624 13.2449 23.0961 13.6005C23.7297 13.9562 24.2479 14.4663 24.5952 15.0761C24.9424 15.686 25.1057 16.3726 25.0676 17.0625C25.0294 17.7524 24.7912 18.4197 24.3784 18.9928C24.3349 19.0532 24.313 19.125 24.3157 19.1978C24.3183 19.2706 24.3455 19.3408 24.3933 19.3983C24.4411 19.4558 24.5071 19.4978 24.5819 19.5182C24.6568 19.5387 24.7366 19.5366 24.81 19.5121C25.3691 19.3256 25.9651 19.2556 26.5562 19.3069C27.1474 19.3581 27.7194 19.5295 28.2322 19.8091C28.7451 20.0886 29.1864 20.4695 29.5253 20.9251C29.8642 21.3807 30.0925 21.9 30.1942 22.4467C30.2959 22.9934 30.2686 23.5543 30.1142 24.0901C29.9598 24.6259 29.682 25.1237 29.3002 25.5487C28.9184 25.9736 28.4419 26.3155 27.904 26.5503C27.3661 26.7851 26.7798 26.9073 26.1862 26.9082Z" fill="#492828"/>
<path d="M1 12.0905L19.9774 1.50463C20.1397 1.41424 20.3186 1.36719 20.5 1.36719C20.6814 1.36719 20.8603 1.41424 21.0226 1.50463L40 12.0905M36.1 18.6169V36.0207C36.1 37.1746 35.6891 38.2813 34.9577 39.0973C34.2263 39.9132 33.2343 40.3716 32.2 40.3716H8.8C7.76566 40.3716 6.77368 39.9132 6.04228 39.0973C5.31089 38.2813 4.9 37.1746 4.9 36.0207V18.6169" stroke="#492828" stroke-width="2" stroke-linecap="round" stroke-linejoin="round"/>
</svg>
