<svg width="20" height="21" viewBox="0 0 20 21" fill="none" xmlns="http://www.w3.org/2000/svg">
<path d="M10.0001 6.57642C10.3617 6.57642 10.7085 6.43591 10.9642 6.18581C11.2199 5.93571 11.3635 5.59649 11.3635 5.24279C11.3635 4.88909 11.2199 4.54988 10.9642 4.29977C10.7085 4.04967 10.3617 3.90916 10.0001 3.90916C9.63854 3.90916 9.29176 4.04967 9.03607 4.29977C8.78038 4.54988 8.63674 4.88909 8.63674 5.24279C8.63674 5.59649 8.78038 5.93571 9.03607 6.18581C9.29176 6.43591 9.63854 6.57642 10.0001 6.57642ZM10.8091 0.615096C10.5747 0.446133 10.2913 0.35498 10.0001 0.35498C9.70901 0.35498 9.42553 0.446133 9.19119 0.615096L0.556304 6.84315C-0.501696 7.60687 0.0500274 9.24991 1.36526 9.24991H1.81972V15.6887C1.28124 15.9081 0.821245 16.2786 0.497732 16.7535C0.174219 17.2283 0.00167436 17.7862 0.00185385 18.3568V19.6905C0.00185385 20.0585 0.307256 20.3573 0.683555 20.3573H19.3167C19.4975 20.3573 19.6709 20.287 19.7988 20.162C19.9266 20.0369 19.9984 19.8673 19.9984 19.6905V18.3568C19.9984 17.7864 19.8258 17.2287 19.5023 16.754C19.1788 16.2793 18.7189 15.909 18.1806 15.6896V9.24991H18.6341C19.9503 9.24991 20.502 7.60687 19.4431 6.84315L10.8091 0.615096ZM3.18313 15.4673V9.24991H5.45546V15.4673H3.18313ZM16.8172 9.24991V15.4673H14.5448V9.24991H16.8172ZM13.1814 9.24991V15.4673H10.6818V9.24991H13.1814ZM9.31844 9.24991V15.4673H6.81887V9.24991H9.31844ZM1.36526 7.91628L10.0001 1.68822L18.6341 7.91628H1.36526ZM1.36526 18.3568C1.36526 17.498 2.07786 16.8009 2.95589 16.8009H17.0444C17.9224 16.8009 18.635 17.498 18.635 18.3568V19.0236H1.36526V18.3568Z" fill="#492828"/>
</svg>
