<svg width="28" height="29" viewBox="0 0 28 29" fill="none" xmlns="http://www.w3.org/2000/svg">
<path fill-rule="evenodd" clip-rule="evenodd" d="M3.87692 0.59668H3.76923C3.276 0.59668 2.85169 0.59668 2.47692 0.684991C1.89675 0.823628 1.36629 1.12018 0.944312 1.5418C0.522332 1.96342 0.225309 2.49363 0.0861538 3.0737C-8.0237e-08 3.44848 0 3.87065 0 4.36605V9.75087C0 10.2441 1.60474e-08 10.6684 0.0883077 11.0432C0.22694 11.6234 0.523485 12.1539 0.945085 12.5759C1.36669 12.9979 1.89688 13.2949 2.47692 13.4341C2.85169 13.5202 3.27385 13.5202 3.76923 13.5202H9.15385C9.64708 13.5202 10.0714 13.5202 10.4462 13.4319C11.0263 13.2933 11.5568 12.9967 11.9788 12.5751C12.4007 12.1535 12.6978 11.6233 12.8369 11.0432C12.9231 10.6684 12.9231 10.2463 12.9231 9.75087V4.36605C12.9231 3.8728 12.9231 3.44848 12.8348 3.0737C12.6961 2.49351 12.3996 1.96302 11.978 1.54103C11.5564 1.11903 11.0262 0.821997 10.4462 0.682837C10.0714 0.59668 9.64923 0.59668 9.15385 0.59668H9.04615H3.87692ZM2.97877 2.78076C3.07138 2.75922 3.21569 2.75061 3.87692 2.75061H9.04615C9.70954 2.75061 9.85169 2.75707 9.94431 2.78076C10.1378 2.82703 10.3147 2.92599 10.4553 3.06666C10.596 3.20734 10.695 3.38423 10.7412 3.57771C10.7628 3.66818 10.7692 3.81034 10.7692 4.47375V9.64317C10.7692 10.3066 10.7628 10.4487 10.7391 10.5414C10.6928 10.7348 10.5939 10.9117 10.4532 11.0524C10.3125 11.1931 10.1356 11.292 9.94215 11.3383C9.85385 11.3577 9.71169 11.3663 9.04615 11.3663H3.87692C3.21354 11.3663 3.07138 11.3599 2.97877 11.3362C2.78529 11.2899 2.60841 11.1909 2.46774 11.0503C2.32707 10.9096 2.22811 10.7327 2.18185 10.5392C2.16246 10.4509 2.15385 10.3087 2.15385 9.64317V4.47375C2.15385 3.81034 2.16031 3.66818 2.184 3.57556C2.23027 3.38207 2.32922 3.20518 2.46989 3.06451C2.61056 2.92384 2.78744 2.82488 2.98092 2.77861M18.9538 0.59668H18.8462C18.3529 0.59668 17.9286 0.59668 17.5538 0.684991C16.9737 0.823628 16.4432 1.12018 16.0212 1.5418C15.5993 1.96342 15.3022 2.49363 15.1631 3.0737C15.0769 3.44848 15.0769 3.87065 15.0769 4.36605V9.75087C15.0769 10.2441 15.0769 10.6684 15.1652 11.0432C15.3039 11.6234 15.6004 12.1539 16.022 12.5759C16.4436 12.9979 16.9738 13.2949 17.5538 13.4341C17.9286 13.5202 18.3508 13.5202 18.8462 13.5202H24.2308C24.724 13.5202 25.1483 13.5202 25.5231 13.4319C26.1032 13.2933 26.6337 12.9967 27.0557 12.5751C27.4777 12.1535 27.7747 11.6233 27.9138 11.0432C28 10.6684 28 10.2463 28 9.75087V4.36605C28 3.8728 28 3.44848 27.9117 3.0737C27.7731 2.49351 27.4765 1.96302 27.0549 1.54103C26.6333 1.11903 26.1031 0.821997 25.5231 0.682837C25.1483 0.59668 24.7262 0.59668 24.2308 0.59668H24.1231H18.9538ZM18.0557 2.78076C18.1483 2.75922 18.2926 2.75061 18.9538 2.75061H24.1231C24.7865 2.75061 24.9286 2.75707 25.0212 2.78076C25.2147 2.82703 25.3916 2.92599 25.5323 3.06666C25.6729 3.20734 25.7719 3.38423 25.8182 3.57771C25.8397 3.66818 25.8462 3.81034 25.8462 4.47375V9.64317C25.8462 10.3066 25.8375 10.4487 25.816 10.5414C25.7697 10.7348 25.6708 10.9117 25.5301 11.0524C25.3894 11.1931 25.2126 11.292 25.0191 11.3383C24.9286 11.3599 24.7865 11.3663 24.1231 11.3663H18.9538C18.2905 11.3663 18.1483 11.3599 18.0557 11.3362C17.8622 11.2899 17.6853 11.1909 17.5447 11.0503C17.404 10.9096 17.305 10.7327 17.2588 10.5392C17.2394 10.4509 17.2308 10.3087 17.2308 9.64317V4.47375C17.2308 3.81034 17.2372 3.66818 17.2609 3.57556C17.3072 3.38207 17.4061 3.20518 17.5468 3.06451C17.6875 2.92384 17.8644 2.82488 18.0578 2.77861M3.76923 15.6742H9.15385C9.64708 15.6742 10.0714 15.6742 10.4462 15.7625C11.0263 15.9011 11.5568 16.1977 11.9788 16.6193C12.4007 17.0409 12.6978 17.5711 12.8369 18.1512C12.9231 18.526 12.9231 18.9481 12.9231 19.4435V24.8284C12.9231 25.3216 12.9231 25.7459 12.8348 26.1207C12.6961 26.7009 12.3996 27.2314 11.978 27.6534C11.5564 28.0754 11.0262 28.3724 10.4462 28.5116C10.0714 28.5977 9.64923 28.5977 9.15385 28.5977H3.76923C3.276 28.5977 2.85169 28.5977 2.47692 28.5094C1.89675 28.3708 1.36629 28.0742 0.944312 27.6526C0.522332 27.231 0.225309 26.7008 0.0861538 26.1207C-8.0237e-08 25.7459 0 25.3238 0 24.8284V19.4435C0 18.9503 1.60474e-08 18.526 0.0883077 18.1512C0.22694 17.571 0.523485 17.0405 0.945085 16.6185C1.36669 16.1965 1.89688 15.8995 2.47692 15.7603C2.85169 15.6742 3.27385 15.6742 3.76923 15.6742ZM3.87692 17.8281C3.21354 17.8281 3.07138 17.8346 2.97877 17.8582C2.78529 17.9045 2.60841 18.0035 2.46774 18.1441C2.32707 18.2848 2.22811 18.4617 2.18185 18.6552C2.16246 18.7435 2.15385 18.8857 2.15385 19.5512V24.7207C2.15385 25.3841 2.16031 25.5262 2.184 25.6188C2.23027 25.8123 2.32922 25.9892 2.46989 26.1299C2.61056 26.2706 2.78744 26.3695 2.98092 26.4158C3.07138 26.4373 3.21354 26.4438 3.87692 26.4438H9.04615C9.70954 26.4438 9.85169 26.4352 9.94431 26.4136C10.1378 26.3674 10.3147 26.2684 10.4553 26.1277C10.596 25.9871 10.695 25.8102 10.7412 25.6167C10.7628 25.5262 10.7692 25.3841 10.7692 24.7207V19.5512C10.7692 18.8878 10.7628 18.7457 10.7391 18.653C10.6928 18.4596 10.5939 18.2827 10.4532 18.142C10.3125 18.0013 10.1356 17.9024 9.94215 17.8561C9.85385 17.8367 9.71169 17.8281 9.04615 17.8281H3.87692ZM18.9538 15.6742H18.8462C18.3529 15.6742 17.9286 15.6742 17.5538 15.7625C16.9737 15.9011 16.4432 16.1977 16.0212 16.6193C15.5993 17.0409 15.3022 17.5711 15.1631 18.1512C15.0769 18.526 15.0769 18.9481 15.0769 19.4435V24.8284C15.0769 25.3216 15.0769 25.7459 15.1652 26.1207C15.3039 26.7009 15.6004 27.2314 16.022 27.6534C16.4436 28.0754 16.9738 28.3724 17.5538 28.5116C17.9286 28.5999 18.3529 28.5999 18.8462 28.5999H24.2308C24.724 28.5999 25.1483 28.5999 25.5231 28.5116C26.1029 28.3726 26.6329 28.0759 27.0544 27.6543C27.476 27.2327 27.7727 26.7027 27.9117 26.1229C28 25.7481 28 25.3238 28 24.8305V19.4435C28 18.9503 28 18.526 27.9117 18.1512C27.7731 17.571 27.4765 17.0405 27.0549 16.6185C26.6333 16.1965 26.1031 15.8995 25.5231 15.7603C25.1483 15.6742 24.7262 15.6742 24.2308 15.6742H24.1231H18.9538ZM18.0557 17.8582C18.1483 17.8367 18.2926 17.8281 18.9538 17.8281H24.1231C24.7865 17.8281 24.9286 17.8346 25.0212 17.8582C25.2147 17.9045 25.3916 18.0035 25.5323 18.1441C25.6729 18.2848 25.7719 18.4617 25.8182 18.6552C25.8397 18.7457 25.8462 18.8878 25.8462 19.5512V24.7207C25.8462 25.3841 25.8375 25.5262 25.816 25.6188C25.7697 25.8123 25.6708 25.9892 25.5301 26.1299C25.3894 26.2706 25.2126 26.3695 25.0191 26.4158C24.9286 26.4373 24.7865 26.4438 24.1231 26.4438H18.9538C18.2905 26.4438 18.1483 26.4352 18.0557 26.4136C17.8622 26.3674 17.6853 26.2684 17.5447 26.1277C17.404 25.9871 17.305 25.8102 17.2588 25.6167C17.2394 25.5284 17.2308 25.3862 17.2308 24.7207V19.5512C17.2308 18.8878 17.2372 18.7457 17.2609 18.653C17.3072 18.4596 17.4061 18.2827 17.5468 18.142C17.6875 18.0013 17.8644 17.9024 18.0578 17.8561" fill="#492828"/>
</svg>
