<svg width="23" height="25" viewBox="0 0 23 25" fill="none" xmlns="http://www.w3.org/2000/svg">
<path d="M10.8284 2.91352C10.8284 3.59558 10.5434 4.24971 10.0362 4.732C9.52893 5.21429 8.84095 5.48524 8.1236 5.48524C7.40624 5.48524 6.71826 5.21429 6.21101 4.732C5.70376 4.24971 5.4188 3.59558 5.4188 2.91352C5.4188 2.23146 5.70376 1.57733 6.21101 1.09504C6.71826 0.612745 7.40624 0.341797 8.1236 0.341797C8.84095 0.341797 9.52893 0.612745 10.0362 1.09504C10.5434 1.57733 10.8284 2.23146 10.8284 2.91352ZM16.0216 12.6518L12.4152 9.22281C12.3276 9.12263 12.217 9.04277 12.0921 8.98929C11.9671 8.93582 11.8309 8.91014 11.6939 8.9142H3.1648C2.83695 8.90714 2.51786 9.01511 2.26841 9.2175C2.01896 9.41989 1.85663 9.70253 1.8124 10.0115L0.00919521 23.213C-0.00306507 23.2926 -0.00306507 23.3734 0.00919521 23.453C0.00919521 23.6804 0.104185 23.8984 0.273268 24.0592C0.442351 24.2199 0.671676 24.3102 0.910795 24.3102C1.108 24.323 1.30399 24.2725 1.46744 24.1668C1.63088 24.0611 1.75234 23.9064 1.8124 23.7273L3.97624 17.058L4.44507 15.635L5.16635 16.3893L7.222 18.5153V23.4873C7.222 23.7147 7.31699 23.9327 7.48607 24.0935C7.65515 24.2542 7.88448 24.3445 8.1236 24.3445C8.36272 24.3445 8.59204 24.2542 8.76112 24.0935C8.93021 23.9327 9.0252 23.7147 9.0252 23.4873V18.3439C9.01059 18.2087 8.96103 18.0791 8.88094 17.9667L6.28433 14.9149L8.08753 10.6287H11.171L14.7774 13.7833C14.8601 13.8746 14.9625 13.9478 15.0776 13.9981C15.1928 14.0484 15.3179 14.0745 15.4446 14.0748C15.6676 14.0492 15.8726 13.9454 16.0194 13.7837C16.1661 13.622 16.2441 13.4139 16.238 13.2004C16.2375 12.9988 16.1607 12.804 16.0216 12.6518ZM21.6476 19.664C21.47 19.664 21.2941 19.6973 21.1301 19.7619C20.966 19.8265 20.8169 19.9212 20.6913 20.0406C20.5657 20.16 20.4661 20.3018 20.3981 20.4578C20.3302 20.6138 20.2952 20.781 20.2952 20.9499C20.2952 21.1187 20.3302 21.2859 20.3981 21.4419C20.4661 21.598 20.5657 21.7397 20.6913 21.8591C20.8169 21.9785 20.966 22.0732 21.1301 22.1378C21.2941 22.2025 21.47 22.2357 21.6476 22.2357C22.0063 22.2357 22.3503 22.1003 22.6039 21.8591C22.8575 21.618 23 21.2909 23 20.9499C23 20.6088 22.8575 20.2818 22.6039 20.0406C22.3503 19.7995 22.0063 19.664 21.6476 19.664ZM15.8052 17.0408V15.7721C15.8052 15.6585 15.7577 15.5494 15.6732 15.4691C15.5887 15.3887 15.474 15.3435 15.3544 15.3435C15.2349 15.3435 15.1202 15.3887 15.0357 15.4691C14.9511 15.5494 14.9036 15.6585 14.9036 15.7721V17.0408C14.7688 17.1129 14.6562 17.2173 14.5771 17.3436C14.4979 17.47 14.4551 17.6139 14.4528 17.7609V23.4873C14.4528 23.7147 14.5478 23.9327 14.7169 24.0935C14.886 24.2542 15.1153 24.3445 15.3544 24.3445C15.5935 24.3445 15.8229 24.2542 15.992 24.0935C16.161 23.9327 16.256 23.7147 16.256 23.4873V17.7609C16.2537 17.6139 16.2109 17.47 16.1318 17.3436C16.0527 17.2173 15.9401 17.1129 15.8052 17.0408Z" fill="#492828"/>
</svg>
