<svg width="25" height="22" viewBox="0 0 25 22" fill="none" xmlns="http://www.w3.org/2000/svg">
<path d="M11.1752 14.2771L12.4647 10.8381L8.26785 9.11859L10.8468 6.10947L13.4257 8.25884H16.4345M13.3243 4.81985C13.7803 4.81985 14.2176 4.63869 14.54 4.31622C14.8625 3.99375 15.0436 3.55639 15.0436 3.10035C15.0436 2.64432 14.8625 2.20696 14.54 1.88449C14.2176 1.56202 13.7803 1.38086 13.3243 1.38086C12.8683 1.38086 12.431 1.56202 12.1086 1.88449C11.7861 2.20696 11.605 2.64432 11.605 3.10035C11.605 3.55639 11.7861 3.99375 12.1086 4.31622C12.431 4.63869 12.8683 4.81985 13.3243 4.81985ZM16.7629 16.8563C17.4469 16.8563 18.1028 16.5846 18.5865 16.1009C19.0701 15.6172 19.3418 14.9611 19.3418 14.2771C19.3418 13.593 19.0701 12.937 18.5865 12.4533C18.1028 11.9696 17.4469 11.6978 16.7629 11.6978C16.0789 11.6978 15.423 11.9696 14.9393 12.4533C14.4557 12.937 14.184 13.593 14.184 14.2771C14.184 14.9611 14.4557 15.6172 14.9393 16.1009C15.423 16.5846 16.0789 16.8563 16.7629 16.8563ZM6.44711 16.8563C7.13109 16.8563 7.78706 16.5846 8.2707 16.1009C8.75435 15.6172 9.02606 14.9611 9.02606 14.2771C9.02606 13.593 8.75435 12.937 8.2707 12.4533C7.78706 11.9696 7.13109 11.6978 6.44711 11.6978C5.76313 11.6978 5.10717 11.9696 4.62352 12.4533C4.13987 12.937 3.86816 13.593 3.86816 14.2771C3.86816 14.9611 4.13987 15.6172 4.62352 16.1009C5.10717 16.5846 5.76313 16.8563 6.44711 16.8563Z" stroke="#492828" stroke-linecap="round" stroke-linejoin="round"/>
<line y1="21" x2="7.40046" y2="21" stroke="#492828" stroke-width="2"/>
<line x1="8.45801" y1="21" x2="15.8585" y2="21" stroke="#492828" stroke-width="2"/>
<line x1="16.916" y1="21" x2="24.3165" y2="21" stroke="#492828" stroke-width="2"/>
</svg>
