<svg width="14" height="22" viewBox="0 0 14 22" fill="none" xmlns="http://www.w3.org/2000/svg">
<path d="M11.6875 0H2.0625C0.928125 0 0 0.928125 0 2.0625V19.9375C0 21.0719 0.928125 22 2.0625 22H11.6875C12.8219 22 13.75 21.0719 13.75 19.9375V2.0625C13.75 0.928125 12.8219 0 11.6875 0ZM4.125 1.03125H9.625V1.71875H4.125V1.03125ZM6.875 20.625C6.51033 20.625 6.16059 20.4801 5.90273 20.2223C5.64487 19.9644 5.5 19.6147 5.5 19.25C5.5 18.8853 5.64487 18.5356 5.90273 18.2777C6.16059 18.0199 6.51033 17.875 6.875 17.875C7.23967 17.875 7.58941 18.0199 7.84727 18.2777C8.10513 18.5356 8.25 18.8853 8.25 19.25C8.25 19.6147 8.10513 19.9644 7.84727 20.2223C7.58941 20.4801 7.23967 20.625 6.875 20.625ZM12.375 16.5H1.375V2.75H12.375V16.5Z" fill="#1D3A76"/>
<path d="M6.875 11.25L4.53125 8.90625L5.1875 8.22656L6.40625 9.44531V5.625H7.34375V9.44531L8.5625 8.22656L9.21875 8.90625L6.875 11.25ZM3.125 13.125V10.7812H4.0625V12.1875H9.6875V10.7812H10.625V13.125H3.125Z" fill="#1D3A76"/>
</svg>
