<svg width="44" height="41" viewBox="0 0 44 41" fill="none" xmlns="http://www.w3.org/2000/svg">
<path d="M10.5086 18.2791V13.2747H30.5262V18.2791H10.5086ZM38.0328 8.05761C38.869 7.76347 39.574 7.18289 40.0232 6.41872C40.4723 5.65454 40.6364 4.75608 40.4866 3.88245C40.3367 3.00883 39.8825 2.21644 39.2044 1.64561C38.5263 1.07478 37.6681 0.762356 36.7817 0.763676H4.25305C3.36667 0.762356 2.50843 1.07478 1.83032 1.64561C1.15222 2.21644 0.698022 3.00883 0.548173 3.88245C0.398324 4.75608 0.562494 5.65454 1.01161 6.41872C1.46072 7.18289 2.16579 7.76347 3.00195 8.05761V34.5435C3.00195 34.8753 3.13376 35.1935 3.36839 35.4281C3.60301 35.6627 3.92124 35.7946 4.25305 35.7946H8.00636V24.5346C8.00636 24.2028 8.13817 23.8846 8.3728 23.65C8.60742 23.4153 8.92565 23.2835 9.25746 23.2835H19.2663C19.5071 23.2833 19.7428 23.3526 19.9452 23.4831C20.1476 23.6136 20.3081 23.7997 20.4073 24.0192C21.1937 23.538 22.0977 23.2834 23.0196 23.2835H38.0328V8.05761ZM4.25305 3.26588H36.7817C37.1135 3.26588 37.4318 3.39769 37.6664 3.63232C37.901 3.86695 38.0328 4.18517 38.0328 4.51698C38.0328 4.8488 37.901 5.16702 37.6664 5.40165C37.4318 5.63627 37.1135 5.76809 36.7817 5.76809H4.25305C3.92124 5.76809 3.60301 5.63627 3.36839 5.40165C3.13376 5.16702 3.00195 4.8488 3.00195 4.51698C3.00195 4.18517 3.13376 3.86695 3.36839 3.63232C3.60301 3.39769 3.92124 3.26588 4.25305 3.26588ZM8.00636 12.0236C8.00636 11.6918 8.13817 11.3736 8.3728 11.1389C8.60742 10.9043 8.92565 10.7725 9.25746 10.7725H31.7773C32.1091 10.7725 32.4273 10.9043 32.662 11.1389C32.8966 11.3736 33.0284 11.6918 33.0284 12.0236V19.5302C33.0284 19.862 32.8966 20.1803 32.662 20.4149C32.4273 20.6495 32.1091 20.7813 31.7773 20.7813H9.25746C8.92565 20.7813 8.60742 20.6495 8.3728 20.4149C8.13817 20.1803 8.00636 19.862 8.00636 19.5302V12.0236ZM18.0152 25.7857V35.7946H10.5086V25.7857H18.0152ZM39.2839 25.7857C40.2794 25.7857 41.234 26.1812 41.9379 26.8851C42.6418 27.5889 43.0372 28.5436 43.0372 29.539V37.0457C43.0372 38.0411 42.6418 38.9958 41.9379 39.6996C41.234 40.4035 40.2794 40.799 39.2839 40.799H24.2707C23.2753 40.799 22.3206 40.4035 21.6167 39.6996C20.9128 38.9958 20.5174 38.0411 20.5174 37.0457V29.539C20.5174 28.5436 20.9128 27.5889 21.6167 26.8851C22.3206 26.1812 23.2753 25.7857 24.2707 25.7857H39.2839ZM39.2839 38.2968C39.2839 37.9649 39.4157 37.6467 39.6504 37.4121C39.885 37.1775 40.2032 37.0457 40.535 37.0457V34.5435C39.5396 34.5435 38.5849 34.9389 37.881 35.6428C37.1772 36.3467 36.7817 37.3013 36.7817 38.2968H39.2839ZM40.535 29.539C40.2032 29.539 39.885 29.4072 39.6504 29.1726C39.4157 28.938 39.2839 28.6198 39.2839 28.2879H36.7817C36.7817 29.2834 37.1772 30.238 37.881 30.9419C38.5849 31.6458 39.5396 32.0412 40.535 32.0412V29.539ZM24.2707 28.2879C24.2707 28.6198 24.1389 28.938 23.9043 29.1726C23.6696 29.4072 23.3514 29.539 23.0196 29.539V32.0412C24.015 32.0412 24.9697 31.6458 25.6736 30.9419C26.3775 30.238 26.7729 29.2834 26.7729 28.2879H24.2707ZM23.0196 37.0457C23.3514 37.0457 23.6696 37.1775 23.9043 37.4121C24.1389 37.6467 24.2707 37.9649 24.2707 38.2968H26.7729C26.7729 37.3013 26.3775 36.3467 25.6736 35.6428C24.9697 34.9389 24.015 34.5435 23.0196 34.5435V37.0457ZM31.7773 29.539C30.7819 29.539 29.8272 29.9345 29.1233 30.6384C28.4194 31.3422 28.024 32.2969 28.024 33.2923C28.024 34.2878 28.4194 35.2425 29.1233 35.9463C29.8272 36.6502 30.7819 37.0457 31.7773 37.0457C32.7727 37.0457 33.7274 36.6502 34.4313 35.9463C35.1352 35.2425 35.5306 34.2878 35.5306 33.2923C35.5306 32.2969 35.1352 31.3422 34.4313 30.6384C33.7274 29.9345 32.7727 29.539 31.7773 29.539Z" fill="#699BA0"/>
</svg>
