<svg width="18" height="23" viewBox="0 0 18 23" fill="none" xmlns="http://www.w3.org/2000/svg">
<path d="M2 20.3441V22.3443H4V20.3441H2ZM8 20.3441H6V22.3443H8V20.3441ZM4 17.3437V19.344H6V17.3437H4ZM8 14.3434V16.3436H6V14.3434H8ZM12 20.3441H10V22.3443H12V20.3441ZM8 17.3437V19.344H10V17.3437H8ZM12 14.3434V16.3436H10V14.3434H12ZM16 20.3441H14V22.3443H16V20.3441ZM12 17.3437V19.344H14V17.3437H12ZM13 10.3429V12.3432H5V10.3429H8V4.34225H10V10.3429H13ZM18 0.341797V2.34203H15V5.34237L11 9.34283V6.54251L13 4.54228V2.34203H5V4.54228L7 6.54251V9.34283L3 5.34237V2.34203H0V0.341797H18Z" fill="#492828"/>
</svg>
