<svg width="41" height="42" viewBox="0 0 41 42" fill="none" xmlns="http://www.w3.org/2000/svg">
<path d="M1 15.5636C1 10.7097 1 8.28273 1.94467 6.42785C2.77556 4.797 4.10133 3.47107 5.732 2.64009C7.58667 1.69531 10.0133 1.69531 14.8667 1.69531H26.1333C30.9867 1.69531 33.4133 1.69531 35.268 2.64009C36.8987 3.47107 38.2244 4.797 39.0553 6.42785C40 8.28273 40 10.7097 40 15.5636V26.8315C40 31.6854 40 34.1123 39.0553 35.9672C38.2244 37.5981 36.8987 38.924 35.268 39.755C33.4133 40.6998 30.9867 40.6998 26.1333 40.6998H14.8667C10.0133 40.6998 7.58667 40.6998 5.732 39.755C4.10133 38.924 2.77556 37.5981 1.94467 35.9672C1 34.1123 1 31.6854 1 26.8315V15.5636Z" stroke="#492828" stroke-width="2" stroke-linecap="round" stroke-linejoin="round"/>
<path d="M31.3522 21.8258L27.8605 17.2276C27.7935 17.1419 27.707 17.0734 27.6083 17.0277C27.5257 16.995 27.435 16.9891 27.3489 17.011C27.2594 17.0357 27.1732 17.0713 27.0923 17.1169C27.0073 17.1659 26.9255 17.2204 26.8475 17.2799L26.6056 17.4637L23.2327 13.0219C23.2146 12.939 23.1992 12.835 23.1865 12.7099C23.1737 12.5848 23.1516 12.4525 23.1201 12.3128C23.0877 12.172 23.0565 12.0427 23.0264 11.925C23.0058 11.8309 22.9683 11.7413 22.9159 11.6605C22.8277 11.5719 22.7325 11.4907 22.6311 11.4177C22.4743 11.2985 22.3131 11.1851 22.1478 11.0778L21.6387 10.7473C21.5223 10.6735 21.4081 10.5961 21.2963 10.5154C21.1931 10.4515 21.074 10.4177 20.9526 10.4179C20.8337 10.4186 20.7184 10.4587 20.6248 10.532L18.8058 11.9137C18.7117 11.9915 18.6423 12.095 18.6061 12.2117C18.5685 12.3236 18.5697 12.445 18.6096 12.5561C18.6398 12.6451 18.6827 12.7803 18.7383 12.9618C18.798 13.1539 18.8613 13.3449 18.9282 13.5347C18.9974 13.7355 19.0634 13.9211 19.1259 14.0916C19.1875 14.2609 19.2382 14.3716 19.2778 14.4238C19.3284 14.4905 19.4051 14.5518 19.5077 14.6077C19.6092 14.6645 19.7261 14.7253 19.8586 14.7901C20.0719 14.8955 20.2871 14.997 20.5041 15.0944L23.877 19.5361L23.6351 19.7199C23.5502 19.7844 23.4735 19.8503 23.4051 19.9175C23.3371 19.9825 23.2811 20.0591 23.2397 20.1435C23.2002 20.2217 23.1819 20.3088 23.1864 20.3963C23.2012 20.5014 23.245 20.6002 23.3129 20.6818L26.8046 25.28C27.0381 25.5874 27.3191 25.8296 27.6475 26.0066C27.976 26.1836 28.3217 26.2944 28.6845 26.3391C29.4256 26.4313 30.1733 26.2295 30.7673 25.7769C31.0705 25.5466 31.3145 25.2681 31.4994 24.9412C31.6804 24.623 31.8033 24.2752 31.8623 23.9139C31.9209 23.5568 31.9088 23.1964 31.8259 22.8329C31.7417 22.4672 31.5802 22.1238 31.3522 21.8258ZM25.6961 18.1545L24.7865 18.8453L21.3328 14.2972C21.2781 14.2255 21.2072 14.1677 21.126 14.1287L20.1958 13.6705L19.8231 12.5753L20.9891 11.6897L21.9432 12.3419L22.1355 13.3619C22.1513 13.4506 22.1879 13.5344 22.2423 13.6063L25.6961 18.1545ZM25.2585 21.3554L24.5678 20.4458L27.2963 18.3733L27.9871 19.2829L25.2585 21.3554ZM28.6778 20.1925L30.4047 22.4666C30.5463 22.643 30.644 22.8452 30.6976 23.0732C30.7508 23.2916 30.7632 23.518 30.7342 23.741C30.6721 24.1884 30.4357 24.5933 30.0766 24.8673C29.8995 25.0101 29.692 25.1103 29.47 25.1602C29.1431 25.245 28.7984 25.2314 28.4792 25.1209C28.16 25.0103 27.8806 24.8079 27.6761 24.5391L25.9493 22.265L28.6778 20.1925ZM12.3587 17.5879C12.3022 17.5133 12.2282 17.4537 12.1432 17.4144C12.0583 17.3751 11.9649 17.3573 11.8714 17.3625C11.778 17.3678 11.6872 17.3959 11.6072 17.4445C11.5271 17.4931 11.4603 17.5606 11.4125 17.6412C10.9057 18.4926 10.6558 19.4724 10.6927 20.4625C10.7297 21.4527 11.052 22.4111 11.6208 23.2224C12.1896 24.0337 12.9807 24.6633 13.8989 25.0355C14.8171 25.4076 15.8232 25.5065 16.7963 25.3202L20.7453 30.5205C21.1117 31.003 21.6548 31.3202 22.255 31.4023C22.8552 31.4843 23.4634 31.3246 23.9459 30.9581C24.4283 30.5917 24.7455 30.0486 24.8275 29.4483C24.9096 28.848 24.7498 28.2397 24.3834 27.7572L20.4351 22.5578C20.8763 21.6704 21.0515 20.6743 20.9397 19.6895C20.8279 18.7048 20.4338 17.7734 19.8049 17.0075C19.176 16.2416 18.3391 15.6738 17.395 15.3726C16.4509 15.0714 15.4399 15.0496 14.4837 15.3098C14.3933 15.3343 14.3104 15.3806 14.2421 15.4446C14.1738 15.5087 14.1223 15.5886 14.0921 15.6772C14.062 15.7659 14.0541 15.8606 14.0691 15.953C14.0842 16.0454 14.1217 16.1327 14.1785 16.2072L16.5664 19.3518C16.7496 19.593 16.8295 19.8972 16.7884 20.1973C16.7474 20.4975 16.5888 20.769 16.3476 20.9522C16.1064 21.1355 15.8023 21.2153 15.5022 21.1743C15.2021 21.1333 14.9306 20.9747 14.7474 20.7334L12.3587 17.5879ZM12.6476 22.6897C11.8256 21.6073 11.6397 20.2425 12.0267 19.0392L13.8364 21.4224C14.2028 21.9049 14.7459 22.2221 15.3461 22.3042C15.9463 22.3862 16.5546 22.2265 17.037 21.86C17.5194 21.4936 17.8366 20.9505 17.9186 20.3502C18.0007 19.7499 17.8409 19.1416 17.4745 18.6591L15.6648 16.2759C16.3846 16.2461 17.0991 16.4114 17.7328 16.7542C18.3665 17.0971 18.8957 17.6049 19.2646 18.2238C19.6336 18.8427 19.8284 19.5498 19.8286 20.2703C19.8288 20.9909 19.6343 21.6981 19.2657 22.3172C19.2077 22.4149 19.1802 22.5276 19.1866 22.6411C19.193 22.7545 19.2331 22.8634 19.3018 22.9539L23.4739 28.4481C23.6571 28.6893 23.737 28.9935 23.6959 29.2936C23.6549 29.5937 23.4964 29.8653 23.2551 30.0485C23.0139 30.2317 22.7098 30.3116 22.4097 30.2706C22.1096 30.2295 21.8381 30.071 21.6549 29.8297L17.4827 24.3356C17.414 24.2451 17.3198 24.1773 17.2123 24.1406C17.1048 24.104 16.9888 24.1003 16.8791 24.1299C16.1102 24.3389 15.2964 24.3132 14.5422 24.0563C13.788 23.7993 13.1277 23.3228 12.6462 22.6879" fill="#492828"/>
</svg>
