<svg width="39" height="39" viewBox="0 0 39 39" fill="none" xmlns="http://www.w3.org/2000/svg">
<rect x="1" y="1" width="37" height="37" rx="9" stroke="#492828" stroke-width="2"/>
<path d="M18 13.6583C18 13.3931 17.8946 13.1387 17.7071 12.9511C17.5196 12.7636 17.2652 12.6582 17 12.6582H13C12.7348 12.6582 12.4804 12.7636 12.2929 12.9511C12.1054 13.1387 12 13.3931 12 13.6583V25.6597C12 26.4554 12.3161 27.2186 12.8787 27.7813C13.4413 28.3439 14.2044 28.66 15 28.66H27C27.2652 28.66 27.5196 28.5547 27.7071 28.3671C27.8946 28.1795 28 27.9252 28 27.6599V23.6595C28 23.3942 27.8946 23.1398 27.7071 22.9523C27.5196 22.7647 27.2652 22.6593 27 22.6593H23V18.6589C23 18.3936 22.8946 18.1393 22.7071 17.9517C22.5196 17.7641 22.2652 17.6588 22 17.6588H18V13.6583ZM13 13.6583H17V17.6588C17 17.924 17.1054 18.1784 17.2929 18.366C17.4804 18.5535 17.7348 18.6589 18 18.6589H22V22.6593C22 22.9246 22.1054 23.179 22.2929 23.3665C22.4804 23.5541 22.7348 23.6595 23 23.6595H27V27.6599H15C14.4696 27.6599 13.9609 27.4492 13.5858 27.0741C13.2107 26.6989 13 26.1902 13 25.6597V13.6583Z" fill="#492828"/>
</svg>
