<svg width="17" height="21" viewBox="0 0 17 21" fill="none" xmlns="http://www.w3.org/2000/svg">
<path d="M1.96154 1.29259C1.96154 1.04392 1.85821 0.805435 1.67428 0.629599C1.49035 0.453764 1.24089 0.35498 0.980769 0.35498C0.720653 0.35498 0.47119 0.453764 0.287261 0.629599C0.103331 0.805435 0 1.04392 0 1.29259V19.4197C0 19.6683 0.103331 19.9068 0.287261 20.0826C0.47119 20.2585 0.720653 20.3573 0.980769 20.3573C1.24089 20.3573 1.49035 20.2585 1.67428 20.0826C1.85821 19.9068 1.96154 19.6683 1.96154 19.4197V1.29259ZM17 1.29259C17 1.04392 16.8967 0.805435 16.7127 0.629599C16.5288 0.453764 16.2793 0.35498 16.0192 0.35498C15.7591 0.35498 15.5097 0.453764 15.3257 0.629599C15.1418 0.805435 15.0385 1.04392 15.0385 1.29259V19.4197C15.0385 19.6683 15.1418 19.9068 15.3257 20.0826C15.5097 20.2585 15.7591 20.3573 16.0192 20.3573C16.2793 20.3573 16.5288 20.2585 16.7127 20.0826C16.8967 19.9068 17 19.6683 17 19.4197V1.29259ZM9.48077 1.29259C9.48077 1.04392 9.37744 0.805435 9.19351 0.629599C9.00958 0.453764 8.76012 0.35498 8.5 0.35498C8.23988 0.35498 7.99042 0.453764 7.80649 0.629599C7.62256 0.805435 7.51923 1.04392 7.51923 1.29259V4.41794C7.51923 4.66661 7.62256 4.9051 7.80649 5.08093C7.99042 5.25677 8.23988 5.35555 8.5 5.35555C8.76012 5.35555 9.00958 5.25677 9.19351 5.08093C9.37744 4.9051 9.48077 4.66661 9.48077 4.41794V1.29259ZM7.51923 11.9188C7.51923 12.1675 7.62256 12.406 7.80649 12.5818C7.99042 12.7576 8.23988 12.8564 8.5 12.8564C8.76012 12.8564 9.00958 12.7576 9.19351 12.5818C9.37744 12.406 9.48077 12.1675 9.48077 11.9188V8.79344C9.48077 8.54478 9.37744 8.30629 9.19351 8.13046C9.00958 7.95462 8.76012 7.85584 8.5 7.85584C8.23988 7.85584 7.99042 7.95462 7.80649 8.13046C7.62256 8.30629 7.51923 8.54478 7.51923 8.79344V11.9188ZM7.51923 16.2943C7.51923 16.0456 7.62256 15.8071 7.80649 15.6313C7.99042 15.4555 8.23988 15.3567 8.5 15.3567C8.76012 15.3567 9.00958 15.4555 9.19351 15.6313C9.37744 15.8071 9.48077 16.0456 9.48077 16.2943V19.4197C9.48077 19.6683 9.37744 19.9068 9.19351 20.0826C9.00958 20.2585 8.76012 20.3573 8.5 20.3573C8.23988 20.3573 7.99042 20.2585 7.80649 20.0826C7.62256 19.9068 7.51923 19.6683 7.51923 19.4197V16.2943Z" fill="#492828"/>
</svg>
