<svg width="22" height="23" viewBox="0 0 22 23" fill="none" xmlns="http://www.w3.org/2000/svg">
<path d="M17 1.36816V6.92435M5 1.36816V6.92435M19.5 2.4794V4.14626M19.5 4.14626V5.81312M19.5 4.14626H21M2.5 2.4794V4.14626M2.5 4.14626V5.81312M2.5 4.14626H1M17 4.14626H5M8 6.92435V15.8143M14 6.92435V15.8143M15 19.148V21.3704M7 19.148V21.3704M6.277 19.148H15.724C16.961 19.148 17.58 19.148 17.836 18.8113C18.416 18.049 17.304 17.04 16.898 16.5321C16.441 15.9587 16.106 15.8143 15.43 15.8143H6.57C5.894 15.8143 5.56 15.9587 5.102 16.5321C4.696 17.04 3.584 18.049 4.164 18.8113C4.42 19.148 5.04 19.148 6.277 19.148Z" stroke="#492828" stroke-width="2" stroke-linecap="round" stroke-linejoin="round"/>
</svg>
