<svg width="36" height="41" viewBox="0 0 36 41" fill="none" xmlns="http://www.w3.org/2000/svg">
<path d="M30.9636 8.08502H28.0828V6.07024C28.0828 4.58593 27.5522 3.16241 26.6077 2.11284C25.6632 1.06327 24.3822 0.473633 23.0464 0.473633H12.9737C11.638 0.473633 10.3569 1.06327 9.41245 2.11284C8.46794 3.16241 7.93733 4.58593 7.93733 6.07024V8.08502H5.03637C3.70064 8.08502 2.41962 8.67466 1.47512 9.72423C0.530616 10.7738 0 12.1973 0 13.6816V34.8816C0 36.3659 0.530616 37.7894 1.47512 38.839C2.41962 39.8886 3.70064 40.4782 5.03637 40.4782H30.9636C31.625 40.4782 32.2799 40.3334 32.891 40.0522C33.502 39.7709 34.0572 39.3587 34.5249 38.839C34.9926 38.3193 35.3635 37.7023 35.6166 37.0233C35.8697 36.3443 36 35.6165 36 34.8816V13.6816C36 12.9467 35.8697 12.2189 35.6166 11.5399C35.3635 10.8609 34.9926 10.2439 34.5249 9.72423C34.0572 9.20454 33.502 8.7923 32.891 8.51104C32.2799 8.22978 31.625 8.08502 30.9636 8.08502ZM9.95188 6.07024C9.95188 5.17966 10.2702 4.32554 10.8369 3.6958C11.4036 3.06606 12.1723 2.71228 12.9737 2.71228H23.0464C23.8479 2.71228 24.6165 3.06606 25.1832 3.6958C25.7499 4.32554 26.0683 5.17966 26.0683 6.07024V8.08502H9.95188V6.07024ZM33.9855 34.8816C33.9855 35.7722 33.6671 36.6263 33.1004 37.256C32.5337 37.8858 31.7651 38.2396 30.9636 38.2396H5.03637C4.23494 38.2396 3.46632 37.8858 2.89962 37.256C2.33292 36.6263 2.01455 35.7722 2.01455 34.8816V13.6816C2.01455 12.791 2.33292 11.9369 2.89962 11.3072C3.46632 10.6775 4.23494 10.3237 5.03637 10.3237H30.9636C31.7651 10.3237 32.5337 10.6775 33.1004 11.3072C33.6671 11.9369 33.9855 12.791 33.9855 13.6816V34.8816Z" fill="#878787"/>
<path d="M23.0464 24.2245C23.0464 24.5214 22.9403 24.8061 22.7514 25.016C22.5625 25.2259 22.3063 25.3439 22.0391 25.3439H19.0173V28.7018C19.0173 28.9987 18.9112 29.2834 18.7223 29.4933C18.5334 29.7032 18.2772 29.8211 18.01 29.8211C17.7429 29.8211 17.4867 29.7032 17.2978 29.4933C17.1089 29.2834 17.0027 28.9987 17.0027 28.7018V25.3439H13.9809C13.7138 25.3439 13.4576 25.2259 13.2687 25.016C13.0798 24.8061 12.9736 24.5214 12.9736 24.2245C12.9736 23.9277 13.0798 23.643 13.2687 23.4331C13.4576 23.2231 13.7138 23.1052 13.9809 23.1052H17.0027V19.7473C17.0027 19.4504 17.1089 19.1657 17.2978 18.9558C17.4867 18.7459 17.7429 18.6279 18.01 18.6279C18.2755 18.6337 18.5288 18.7534 18.7166 18.9621C18.9043 19.1708 19.0121 19.4522 19.0173 19.7473V23.1052H22.0391C22.3046 23.1109 22.5579 23.2307 22.7457 23.4394C22.9334 23.6481 23.0412 23.9295 23.0464 24.2245Z" fill="#878787"/>
</svg>
