<svg width="22" height="23" viewBox="0 0 22 23" fill="none" xmlns="http://www.w3.org/2000/svg">
<path d="M16.75 9.88086C19.0972 9.88086 21 7.97807 21 5.63086C21 3.28365 19.0972 1.38086 16.75 1.38086C14.4028 1.38086 12.5 3.28365 12.5 5.63086C12.5 7.97807 14.4028 9.88086 16.75 9.88086Z" stroke="#492828" stroke-width="1.5" stroke-linecap="round" stroke-linejoin="round"/>
<path d="M5.25 9.88086C7.59721 9.88086 9.5 7.97807 9.5 5.63086C9.5 3.28365 7.59721 1.38086 5.25 1.38086C2.90279 1.38086 1 3.28365 1 5.63086C1 7.97807 2.90279 9.88086 5.25 9.88086Z" stroke="#492828" stroke-width="1.5" stroke-linecap="round" stroke-linejoin="round"/>
<path d="M16.75 21.3823C19.0972 21.3823 21 19.4795 21 17.1323C21 14.7851 19.0972 12.8823 16.75 12.8823C14.4028 12.8823 12.5 14.7851 12.5 17.1323C12.5 19.4795 14.4028 21.3823 16.75 21.3823Z" stroke="#492828" stroke-width="1.5" stroke-linecap="round" stroke-linejoin="round"/>
<path d="M5.25 21.3823C7.59721 21.3823 9.5 19.4795 9.5 17.1323C9.5 14.7851 7.59721 12.8823 5.25 12.8823C2.90279 12.8823 1 14.7851 1 17.1323C1 19.4795 2.90279 21.3823 5.25 21.3823Z" stroke="#492828" stroke-width="1.5" stroke-linecap="round" stroke-linejoin="round"/>
</svg>
