<svg width="36" height="40" viewBox="0 0 36 40" fill="none" xmlns="http://www.w3.org/2000/svg">
<path d="M13.5 30.644H21.834M21.834 3.55687C21.834 3.28321 21.7801 3.01223 21.6753 2.75942C21.5706 2.5066 21.4171 2.27691 21.2235 2.08345C21.03 1.88999 20.8003 1.73656 20.5474 1.63192C20.2946 1.52729 20.0236 1.4735 19.75 1.47363H15.584C15.3104 1.4735 15.0394 1.52729 14.7866 1.63192C14.5337 1.73656 14.304 1.88999 14.1105 2.08345C13.9169 2.27691 13.7634 2.5066 13.6587 2.75942C13.5539 3.01223 13.5 3.28321 13.5 3.55687V5.64111H21.834V3.55687ZM30.167 34.8104H32.25C32.8025 34.8104 33.3325 34.591 33.7233 34.2003C34.1141 33.8097 34.3337 33.2798 34.334 32.7272V26.4765H30.167V34.8104ZM5.167 26.4765H1V32.7272C1 33.0009 1.05391 33.2718 1.15865 33.5247C1.2634 33.7775 1.41692 34.0072 1.61045 34.2006C1.80398 34.3941 2.03373 34.5475 2.28656 34.6522C2.5394 34.7568 2.81037 34.8106 3.084 34.8104H5.167V26.4765Z" stroke="#878787" stroke-width="2" stroke-linecap="round" stroke-linejoin="round"/>
<path d="M7.24998 18.1425C6.145 18.1423 5.08536 17.7031 4.30412 16.9216C3.52287 16.14 3.08398 15.0802 3.08398 13.9751V7.72435C3.08398 7.17184 3.30344 6.64196 3.69408 6.25128C4.08472 5.8606 4.61454 5.64111 5.16698 5.64111H30.167C30.7194 5.64111 31.2493 5.8606 31.6399 6.25128C32.0305 6.64196 32.25 7.17184 32.25 7.72435V13.9751C32.25 15.0802 31.8111 16.14 31.0299 16.9216C30.2486 17.7031 29.189 18.1423 28.084 18.1425M7.24998 18.1425H28.084M7.24998 18.1425C6.51637 18.1345 5.79785 17.933 5.16698 17.5585V36.8947C5.16698 37.4472 5.38644 37.9771 5.77708 38.3678C6.16772 38.7584 6.69754 38.9779 7.24998 38.9779H28.084C28.6364 38.9779 29.1663 38.7584 29.5569 38.3678C29.9475 37.9771 30.167 37.4472 30.167 36.8947V17.5585C29.5361 17.933 28.8176 18.1345 28.084 18.1425" stroke="#878787" stroke-width="2" stroke-linecap="round" stroke-linejoin="round"/>
<path d="M17.667 16.0586V20.2256" stroke="#878787" stroke-width="2" stroke-linecap="round" stroke-linejoin="round"/>
</svg>
