<svg width="20" height="21" viewBox="0 0 20 21" fill="none" xmlns="http://www.w3.org/2000/svg">
<path fill-rule="evenodd" clip-rule="evenodd" d="M19.4737 1.40773C14.5881 1.40773 9.90265 3.34874 6.44803 6.80375C2.99342 10.2588 1.05263 14.9448 1.05263 19.8309C1.05263 19.9705 0.997181 20.1044 0.898477 20.2031C0.799774 20.3018 0.665903 20.3573 0.526316 20.3573C0.386728 20.3573 0.252858 20.3018 0.154154 20.2031C0.0554511 20.1044 0 19.9705 0 19.8309C0 14.6656 2.05169 9.71178 5.70371 6.05934C9.35573 2.4069 14.3089 0.35498 19.4737 0.35498C19.6133 0.35498 19.7471 0.410438 19.8458 0.509153C19.9445 0.607867 20 0.741753 20 0.881356C20 1.02096 19.9445 1.15485 19.8458 1.25356C19.7471 1.35227 19.6133 1.40773 19.4737 1.40773Z" fill="#492828"/>
<path fill-rule="evenodd" clip-rule="evenodd" d="M17.4851 5.6092C17.0929 5.66183 16.7046 5.73096 16.3204 5.81659L16.093 4.78858C16.5068 4.69702 16.9242 4.62274 17.3441 4.56592L17.4851 5.6092ZM14.063 6.51772C13.3312 6.81377 12.6252 7.17031 11.9525 7.58363L11.402 6.68669C12.1243 6.24278 12.8824 5.85983 13.6683 5.54182L14.063 6.51772ZM10.0488 8.98484C9.45406 9.50383 8.90356 10.0715 8.40304 10.6819L7.58883 10.0144C8.12648 9.35877 8.71783 8.74905 9.35673 8.1916L10.0488 8.98484ZM7.06094 12.6289C6.66869 13.314 6.3342 14.0306 6.06094 14.7713L5.07357 14.4065C5.36693 13.6109 5.72607 12.8411 6.14725 12.1052L7.06094 12.6289ZM5.42936 17.0494C5.35594 17.4371 5.2987 17.8277 5.25778 18.2201L4.21094 18.1106C4.25515 17.6878 4.31655 17.2688 4.39515 16.8536L5.42936 17.0494ZM15.5657 10.4529C16.7789 9.95035 18.0793 9.69172 19.3925 9.69177C19.5321 9.69177 19.666 9.74722 19.7647 9.84594C19.8634 9.94465 19.9188 10.0785 19.9188 10.2181C19.9188 10.3577 19.8634 10.4916 19.7647 10.5903C19.666 10.6891 19.5321 10.7445 19.3925 10.7445C17.0195 10.7445 14.7437 11.6873 13.0658 13.3654C11.3878 15.0436 10.4451 17.3196 10.4451 19.6929C10.4451 19.8325 10.3897 19.9664 10.291 20.0651C10.1923 20.1638 10.0584 20.2193 9.91883 20.2193C9.77924 20.2193 9.64537 20.1638 9.54667 20.0651C9.44797 19.9664 9.39252 19.8325 9.39252 19.6929C9.39249 17.7148 9.97896 15.7812 11.0778 14.1365C12.1766 12.4918 13.7384 11.2099 15.5657 10.4529Z" fill="#492828"/>
</svg>
