<svg width="30" height="31" viewBox="0 0 30 31" fill="none" xmlns="http://www.w3.org/2000/svg">
<path d="M1 7.80448C1 5.62645 1 4.53744 1.42311 3.70512C1.79602 2.97292 2.39122 2.37765 3.12333 2.0047C3.95556 1.58154 5.04444 1.58154 7.22222 1.58154H22.7778C24.9556 1.58154 26.0444 1.58154 26.8767 2.0047C27.6082 2.37792 28.2028 2.97316 28.5753 3.70512C29 4.53744 29 5.62645 29 7.80448V23.3618C29 25.5398 29 26.6288 28.5753 27.4612C28.2026 28.1926 27.608 28.7872 26.8767 29.16C26.0444 29.5847 24.9556 29.5847 22.7778 29.5847H7.22222C5.04444 29.5847 3.95556 29.5847 3.12333 29.16C2.39145 28.7875 1.79628 28.1928 1.42311 27.4612C1 26.6288 1 25.5398 1 23.3618V7.80448Z" stroke="#492828" stroke-width="2"/>
<path d="M8.7781 18.6934C10.4963 18.6934 11.8892 17.3005 11.8892 15.5823C11.8892 13.8641 10.4963 12.4712 8.7781 12.4712C7.05988 12.4712 5.66699 13.8641 5.66699 15.5823C5.66699 17.3005 7.05988 18.6934 8.7781 18.6934Z" stroke="#492828" stroke-width="2"/>
<path d="M11.8887 15.5835H18.1109M18.1109 15.5835H22.5442C22.6061 15.5835 22.6655 15.6081 22.7092 15.6518C22.753 15.6956 22.7776 15.7549 22.7776 15.8168V18.6946M18.1109 15.5835V18.6946" stroke="#492828" stroke-width="2" stroke-linecap="round"/>
</svg>
