<svg width="18" height="22" viewBox="0 0 18 22" fill="none" xmlns="http://www.w3.org/2000/svg">
<path d="M9 21.3833C7.737 20.3708 6.34163 19.572 4.81388 18.9869C3.28613 18.4018 1.6815 18.0525 0 17.939V7.60862C1.7205 7.7081 3.3555 8.11155 4.905 8.81896C6.45375 9.52637 7.81875 10.4025 9 11.4474C10.1812 10.4025 11.5463 9.52637 13.095 8.81896C14.6438 8.11155 16.2787 7.7081 18 7.60862V17.939C16.314 18.0525 14.7083 18.4018 13.1828 18.9869C11.6573 19.572 10.263 20.3708 9 21.3833ZM9 19.9972C10.1812 19.1453 11.4375 18.4586 12.7688 17.9368C14.1 17.4151 15.4688 17.0695 16.875 16.9V8.85101C15.405 9.0905 14.0021 9.55622 12.6664 10.2482C11.3306 10.9401 10.1085 11.8303 9 12.9186C7.89225 11.8303 6.67013 10.9397 5.33363 10.247C3.99713 9.55437 2.59425 9.08866 1.125 8.84991V16.9022C2.53125 17.0695 3.9 17.4144 5.23125 17.9368C6.5625 18.4593 7.81875 19.1461 9 19.9972ZM9 7.52351C8.00025 7.52351 7.1445 7.17386 6.43275 6.47455C5.721 5.77451 5.36513 4.93372 5.36513 3.95219C5.36513 2.97065 5.72137 2.13023 6.43388 1.43093C7.14637 0.731619 8.00175 0.381597 9 0.380861C9.99825 0.380124 10.854 0.730145 11.5672 1.43093C12.2805 2.13171 12.6364 2.97213 12.6349 3.95219C12.6334 4.93225 12.2771 5.77304 11.5661 6.47455C10.8551 7.17607 9.99975 7.52572 9 7.52351ZM9 6.41818C9.69075 6.41818 10.2818 6.17685 10.773 5.69419C11.2642 5.21153 11.5099 4.63086 11.5099 3.95219C11.5099 3.27351 11.2639 2.69285 10.7719 2.21018C10.2799 1.72752 9.68925 1.48656 9 1.4873C8.31075 1.48803 7.72013 1.72936 7.22813 2.21129C6.73612 2.69321 6.4905 3.27388 6.49125 3.95329C6.492 4.6327 6.738 5.213 7.22925 5.69419C7.7205 6.17538 8.31075 6.41671 9 6.41818Z" fill="#492828"/>
</svg>
