<svg width="18" height="25" viewBox="0 0 18 25" fill="none" xmlns="http://www.w3.org/2000/svg">
<path d="M7 24.8942V18.3935C7 17.863 7.21071 17.3542 7.58579 16.9791C7.96086 16.604 8.46957 16.3933 9 16.3933V8.39235C9 8.39235 7.5 7.39224 5 7.39224C2.5 7.39224 1 8.39235 1 8.39235V16.3933C1.53043 16.3933 2.03914 16.604 2.41421 16.9791C2.78929 17.3542 3 17.863 3 18.3935V24.8942M17.5 14.8931C17.235 14.8931 16.84 15.1681 16.507 15.4462C16.0731 15.8052 15.7049 16.2371 15.419 16.7223C15.205 17.0893 15 17.5354 15 17.8934C15 17.5354 14.795 17.0893 14.58 16.7223C14.2944 16.2371 13.9265 15.8053 13.493 15.4462C13.161 15.1681 12.765 14.8931 12.5 14.8931M17.5 10.8926C17.235 10.8926 16.84 10.6176 16.507 10.3396C16.0731 9.9805 15.7049 9.54868 15.419 9.06343C15.205 8.69639 15 8.25034 15 7.8923C15 8.25034 14.795 8.69639 14.58 9.06343C14.295 9.55349 13.921 9.98154 13.493 10.3396C13.161 10.6176 12.765 10.8926 12.5 10.8926M4.85 5.39201C4.85 5.39201 3.25 4.3919 3.25 3.14175C3.25 2.6781 3.43416 2.23344 3.76198 1.90559C4.08979 1.57774 4.5344 1.39355 4.998 1.39355C5.4616 1.39355 5.90621 1.57774 6.23402 1.90559C6.56184 2.23344 6.746 2.6781 6.746 3.14175C6.746 4.3919 5.15 5.39201 5.15 5.39201H4.85Z" stroke="#492828" stroke-width="2"/>
</svg>
