<svg width="28" height="28" viewBox="0 0 28 28" fill="none" xmlns="http://www.w3.org/2000/svg">
<path d="M7.80339 6.19531C7.38959 6.19531 6.99274 6.35969 6.70014 6.65229C6.40754 6.94489 6.24316 7.34174 6.24316 7.75554C6.24316 8.16933 6.40754 8.56618 6.70014 8.85878C6.99274 9.15138 7.38959 9.31576 7.80339 9.31576H20.1701C20.5838 9.31576 20.9807 9.15138 21.2733 8.85878C21.5659 8.56618 21.7303 8.16933 21.7303 7.75554C21.7303 7.34174 21.5659 6.94489 21.2733 6.65229C20.9807 6.35969 20.5838 6.19531 20.1701 6.19531H7.80339ZM6.24783 14.0011C6.24783 13.1424 6.94316 12.4409 7.80339 12.4409H20.1701C20.5838 12.4409 20.9807 12.6052 21.2733 12.8978C21.5659 13.1904 21.7303 13.5873 21.7303 14.0011C21.7303 14.4149 21.5659 14.8117 21.2733 15.1043C20.9807 15.3969 20.5838 15.5613 20.1701 15.5613H7.80339C6.94316 15.5613 6.24783 14.8613 6.24783 14.0011ZM7.81739 18.6864C7.40338 18.6864 7.00634 18.8509 6.71359 19.1436C6.42085 19.4364 6.25639 19.8334 6.25639 20.2474C6.25639 20.6614 6.42085 21.0585 6.71359 21.3512C7.00634 21.644 7.40338 21.8084 7.81739 21.8084H20.1841C20.5981 21.8084 20.9951 21.644 21.2878 21.3512C21.5806 21.0585 21.7451 20.6614 21.7451 20.2474C21.7451 19.8334 21.5806 19.4364 21.2878 19.1436C20.9951 18.8509 20.5981 18.6864 20.1841 18.6864H7.81739Z" fill="#3F5370"/>
<path fill-rule="evenodd" clip-rule="evenodd" d="M0 4.66667C0 3.42899 0.491665 2.242 1.36684 1.36684C2.242 0.491665 3.42899 0 4.66667 0H23.3333C24.571 0 25.758 0.491665 26.6332 1.36684C27.5083 2.242 28 3.42899 28 4.66667V23.3333C28 24.571 27.5083 25.758 26.6332 26.6332C25.758 27.5083 24.571 28 23.3333 28H4.66667C3.42899 28 2.242 27.5083 1.36684 26.6332C0.491665 25.758 0 24.571 0 23.3333V4.66667ZM4.66667 3.11111H23.3333C23.7459 3.11111 24.1416 3.275 24.4333 3.56672C24.725 3.85845 24.8889 4.25411 24.8889 4.66667V23.3333C24.8889 23.7459 24.725 24.1416 24.4333 24.4333C24.1416 24.725 23.7459 24.8889 23.3333 24.8889H4.66667C4.25411 24.8889 3.85845 24.725 3.56672 24.4333C3.275 24.1416 3.11111 23.7459 3.11111 23.3333V4.66667C3.11111 4.25411 3.275 3.85845 3.56672 3.56672C3.85845 3.275 4.25411 3.11111 4.66667 3.11111Z" fill="#3F5370"/>
</svg>
