<svg width="42" height="33" viewBox="0 0 42 33" fill="none" xmlns="http://www.w3.org/2000/svg">
<path fill-rule="evenodd" clip-rule="evenodd" d="M16.5 0H24.75C32.5277 0 36.4176 -2.45869e-07 38.8327 2.41725C41.25 4.83244 41.25 8.72231 41.25 16.5C41.25 24.2777 41.25 28.1676 38.8327 30.5827C36.4176 33 32.5277 33 24.75 33H16.5C8.72231 33 4.83244 33 2.41725 30.5827C-2.45869e-07 28.1676 0 24.2777 0 16.5C0 8.72231 -2.45869e-07 4.83244 2.41725 2.41725C4.83244 -2.45869e-07 8.72231 0 16.5 0ZM23.2031 10.3125C23.2031 9.90224 23.3661 9.50879 23.6562 9.21869C23.9463 8.9286 24.3397 8.76562 24.75 8.76562H35.0625C35.4728 8.76562 35.8662 8.9286 36.1563 9.21869C36.4464 9.50879 36.6094 9.90224 36.6094 10.3125C36.6094 10.7228 36.4464 11.1162 36.1563 11.4063C35.8662 11.6964 35.4728 11.8594 35.0625 11.8594H24.75C24.3397 11.8594 23.9463 11.6964 23.6562 11.4063C23.3661 11.1162 23.2031 10.7228 23.2031 10.3125ZM25.2656 16.5C25.2656 16.0897 25.4286 15.6963 25.7187 15.4062C26.0088 15.1161 26.4022 14.9531 26.8125 14.9531H35.0625C35.4728 14.9531 35.8662 15.1161 36.1563 15.4062C36.4464 15.6963 36.6094 16.0897 36.6094 16.5C36.6094 16.9103 36.4464 17.3037 36.1563 17.5938C35.8662 17.8839 35.4728 18.0469 35.0625 18.0469H26.8125C26.4022 18.0469 26.0088 17.8839 25.7187 17.5938C25.4286 17.3037 25.2656 16.9103 25.2656 16.5ZM27.3281 22.6875C27.3281 22.2772 27.4911 21.8838 27.7812 21.5937C28.0713 21.3036 28.4647 21.1406 28.875 21.1406H35.0625C35.4728 21.1406 35.8662 21.3036 36.1563 21.5937C36.4464 21.8838 36.6094 22.2772 36.6094 22.6875C36.6094 23.0978 36.4464 23.4912 36.1563 23.7813C35.8662 24.0714 35.4728 24.2344 35.0625 24.2344H28.875C28.4647 24.2344 28.0713 24.0714 27.7812 23.7813C27.4911 23.4912 27.3281 23.0978 27.3281 22.6875ZM18.5625 10.3125C18.5625 11.4065 18.1279 12.4557 17.3543 13.2293C16.5807 14.0029 15.5315 14.4375 14.4375 14.4375C13.3435 14.4375 12.2943 14.0029 11.5207 13.2293C10.7471 12.4557 10.3125 11.4065 10.3125 10.3125C10.3125 9.21848 10.7471 8.16927 11.5207 7.39568C12.2943 6.6221 13.3435 6.1875 14.4375 6.1875C15.5315 6.1875 16.5807 6.6221 17.3543 7.39568C18.1279 8.16927 18.5625 9.21848 18.5625 10.3125ZM14.4375 26.8125C22.6875 26.8125 22.6875 24.9666 22.6875 22.6875C22.6875 20.4084 18.9956 18.5625 14.4375 18.5625C9.87937 18.5625 6.1875 20.4084 6.1875 22.6875C6.1875 24.9666 6.1875 26.8125 14.4375 26.8125Z" fill="white"/>
</svg>
