<?xml version="1.0" encoding="UTF-8"?>
<svg id="Layer_1" xmlns="http://www.w3.org/2000/svg" version="1.1" viewBox="0 0 1920 1080">
  <!-- Generator: Adobe Illustrator 29.2.0, SVG Export Plug-In . SVG Version: 2.1.0 Build 108)  -->
  <defs>
    <style>
      .st0 {
        fill: #1d3a76;
      }

      .st1 {
        fill: #f0aa00;
      }
    </style>
  </defs>
  <g>
    <polyline class="st0" points="952.13 285.91 909.51 310.33 886.11 323.75 843.51 348.17 843.51 551.53 886.11 575.35 886.11 372.86 909.51 359.43 952.13 335 973.67 322.66 1016.99 297.82 1017.93 297.27 1017.93 298.35 1040.32 310.89 1017.93 323.72 973.67 349.11 952.13 361.45 909.51 385.89 909.51 588.45 952.13 612.3 952.13 410.57 973.67 398.21 1017.93 372.85 1083.7 335.15 1085.45 334.14 1127.53 310.02 1085.45 286.45 1084.17 285.74 1060.83 272.69 1017.49 248.43 993.69 235.12 952.13 211.86 950.35 210.86 777.68 309.85 777.68 514.69 820.3 538.53 820.3 334.52 843.51 321.23 886.11 296.8 909.51 283.39 949.86 260.25 973.64 273.56"/>
    <path class="st1" d="M1085.45,360.56l-67.51,38.71-44.26,25.37v175.81l44.26-25.37,67.51-38.71,43.37-24.87v-175.81l-43.37,24.87ZM1085.45,486.87l-67.51,38.71v-76.73l67.51-38.71v76.73Z"/>
  </g>
  <g>
    <path class="st1" d="M0,865.96v-184.97h35.41l78.74,130.54h-18.76l77.42-130.54h35.14l.53,184.97h-40.17l-.26-123.4h7.4l-61.83,103.85h-19.29l-63.15-103.85h8.98v123.4H0Z"/>
    <path class="st1" d="M294.9,831.61h100.68v34.35h-143.22v-184.97h139.79v34.35h-97.24v116.27ZM291.73,755.51h89.05v33.3h-89.05v-33.3Z"/>
    <path class="st1" d="M472.2,831.61h100.68v34.35h-143.22v-184.97h139.79v34.35h-97.24v116.27ZM469.03,755.51h89.05v33.3h-89.05v-33.3Z"/>
    <path class="st1" d="M645.28,865.96v-150.09h-59.19v-34.88h161.19v34.88h-59.19v150.09h-42.81Z"/>
    <path class="st0" d="M934.9,869.14c-14.62,0-28.14-2.38-40.56-7.14-12.42-4.76-23.17-11.45-32.24-20.08-9.08-8.63-16.12-18.76-21.14-30.39-5.02-11.63-7.53-24.31-7.53-38.05s2.51-26.42,7.53-38.05,12.11-21.75,21.27-30.39c9.16-8.63,19.9-15.33,32.24-20.08,12.33-4.76,25.72-7.14,40.16-7.14s28.05,2.38,40.3,7.14c12.24,4.76,22.9,11.45,31.98,20.08,9.07,8.63,16.16,18.72,21.27,30.26,5.11,11.54,7.66,24.27,7.66,38.18s-2.55,26.47-7.66,38.18c-5.11,11.72-12.2,21.85-21.27,30.39-9.08,8.55-19.73,15.19-31.98,19.95-12.25,4.76-25.59,7.14-40.03,7.14ZM934.63,832.67c8.28,0,15.9-1.41,22.86-4.23,6.96-2.82,13.08-6.87,18.37-12.16,5.28-5.28,9.38-11.54,12.29-18.76,2.91-7.22,4.36-15.23,4.36-24.05s-1.45-16.82-4.36-24.05c-2.91-7.22-6.96-13.48-12.15-18.76-5.2-5.28-11.32-9.34-18.36-12.16-7.05-2.82-14.71-4.23-22.99-4.23s-15.9,1.41-22.86,4.23c-6.96,2.82-13.08,6.87-18.36,12.16s-9.38,11.54-12.29,18.76c-2.91,7.22-4.36,15.24-4.36,24.05s1.45,16.61,4.36,23.91c2.91,7.31,6.96,13.61,12.15,18.89,5.19,5.28,11.32,9.34,18.36,12.16,7.04,2.82,14.71,4.23,22.99,4.23Z"/>
    <path class="st0" d="M1106.39,865.96l-60.51-184.97h44.39l52.58,163.83h-22.2l54.96-163.83h39.64l52.85,163.83h-21.4l53.91-163.83h40.96l-60.51,184.97h-45.98l-46.77-143.75h12.16l-48.09,143.75h-45.98Z"/>
    <path class="st0" d="M1365.35,865.96v-184.97h35.41l109.13,133.18h-17.17v-133.18h42.28v184.97h-35.14l-109.4-133.18h17.18v133.18h-42.28Z"/>
    <path class="st0" d="M1621.4,831.61h100.68v34.35h-143.22v-184.97h139.79v34.35h-97.24v116.27ZM1618.23,755.51h89.05v33.3h-89.05v-33.3Z"/>
    <path class="st0" d="M1756.17,865.96v-184.97h80.07c16.56,0,30.83,2.69,42.81,8.06,11.98,5.38,21.23,13.08,27.75,23.12,6.52,10.04,9.78,22.02,9.78,35.94s-3.26,25.59-9.78,35.54c-6.52,9.95-15.77,17.57-27.75,22.86-11.98,5.28-26.25,7.93-42.81,7.93h-56.28l19.03-18.76v70.29h-42.81ZM1798.98,800.43l-19.03-20.08h53.91c13.21,0,23.08-2.86,29.6-8.59,6.52-5.72,9.78-13.61,9.78-23.65s-3.26-18.14-9.78-23.78c-6.52-5.64-16.38-8.46-29.6-8.46h-53.91l19.03-20.35v104.9ZM1873.76,865.96l-46.24-67.12h45.71l46.77,67.12h-46.24Z"/>
  </g>
</svg>