<svg width="20" height="21" viewBox="0 0 20 21" fill="none" xmlns="http://www.w3.org/2000/svg">
<path d="M11.8369 0.394043L11.2299 1.69854H16.5102L15.9033 0.394043H11.8369ZM5.61588 0.654942C4.03787 0.654942 2.87258 1.05151 2.16247 1.66549C1.44752 2.27904 1.18532 3.06826 1.18532 3.82922V15.2653H2.27779V3.82922C2.27779 3.19871 2.50235 2.59647 3.00003 2.16642C3.50378 1.73681 4.28064 1.43764 5.61588 1.43764H10.1982L10.5623 0.654942H5.61588ZM10.4288 2.48124L7.77653 4.32928L10.3195 3.49875L8.22565 7.27744L12.025 4.74237L11.9582 8.72978L13.8883 4.32928L18.1671 9.4429L16.2674 3.75095L20 5.32069L17.1171 2.48124H10.4288ZM0.308318 16.048L0 20.3963H3.46129L3.15176 16.048H0.308318Z" fill="#492828"/>
</svg>
