<svg width="19" height="22" viewBox="0 0 19 22" fill="none" xmlns="http://www.w3.org/2000/svg">
<path d="M3.5 4.86819C3.5 4.60294 3.60536 4.34856 3.79289 4.161C3.98043 3.97344 4.23478 3.86808 4.5 3.86808C4.76522 3.86808 5.01957 3.97344 5.20711 4.161C5.39464 4.34856 5.5 4.60294 5.5 4.86819C5.5 5.13344 5.39464 5.38782 5.20711 5.57538C5.01957 5.76293 4.76522 5.8683 4.5 5.8683C4.23478 5.8683 3.98043 5.76293 3.79289 5.57538C3.60536 5.38782 3.5 5.13344 3.5 4.86819ZM4.5 10.8689C4.23478 10.8689 3.98043 10.9742 3.79289 11.1618C3.60536 11.3494 3.5 11.6037 3.5 11.869C3.5 12.1342 3.60536 12.3886 3.79289 12.5762C3.98043 12.7637 4.23478 12.8691 4.5 12.8691C4.76522 12.8691 5.01957 12.7637 5.20711 12.5762C5.39464 12.3886 5.5 12.1342 5.5 11.869C5.5 11.6037 5.39464 11.3494 5.20711 11.1618C5.01957 10.9742 4.76522 10.8689 4.5 10.8689ZM3.5 8.36859C3.5 8.10334 3.60536 7.84896 3.79289 7.6614C3.98043 7.47384 4.23478 7.36847 4.5 7.36847C4.76522 7.36847 5.01957 7.47384 5.20711 7.6614C5.39464 7.84896 5.5 8.10334 5.5 8.36859C5.5 8.63384 5.39464 8.88822 5.20711 9.07578C5.01957 9.26333 4.76522 9.3687 4.5 9.3687C4.23478 9.3687 3.98043 9.26333 3.79289 9.07578C3.60536 8.88822 3.5 8.63384 3.5 8.36859ZM8 3.86808C7.73478 3.86808 7.48043 3.97344 7.29289 4.161C7.10536 4.34856 7 4.60294 7 4.86819C7 5.13344 7.10536 5.38782 7.29289 5.57538C7.48043 5.76293 7.73478 5.8683 8 5.8683C8.26522 5.8683 8.51957 5.76293 8.70711 5.57538C8.89464 5.38782 9 5.13344 9 4.86819C9 4.60294 8.89464 4.34856 8.70711 4.161C8.51957 3.97344 8.26522 3.86808 8 3.86808ZM7 8.36859C7 8.10334 7.10536 7.84896 7.29289 7.6614C7.48043 7.47384 7.73478 7.36847 8 7.36847C8.26522 7.36847 8.51957 7.47384 8.70711 7.6614C8.89464 7.84896 9 8.10334 9 8.36859C9 8.63384 8.89464 8.88822 8.70711 9.07578C8.51957 9.26333 8.26522 9.3687 8 9.3687C7.73478 9.3687 7.48043 9.26333 7.29289 9.07578C7.10536 8.88822 7 8.63384 7 8.36859ZM0 2.61793C0 2.02113 0.237053 1.44877 0.65901 1.02676C1.08097 0.604756 1.65326 0.367676 2.25 0.367676H10.25C10.8467 0.367676 11.419 0.604756 11.841 1.02676C12.2629 1.44877 12.5 2.02113 12.5 2.61793V7.86853H13.753C14.0485 7.86853 14.3411 7.92674 14.614 8.03982C14.887 8.15291 15.1351 8.31866 15.344 8.52762C15.5529 8.73657 15.7187 8.98464 15.8317 9.25765C15.9448 9.53067 16.003 9.82328 16.003 10.1188V11.4719C15.563 11.595 15.168 11.826 14.848 12.133C14.7652 11.8719 14.6493 11.6225 14.503 11.3909V10.1178C14.503 9.91885 14.424 9.72807 14.2833 9.5874C14.1427 9.44673 13.9519 9.3677 13.753 9.3677H11.75C11.5511 9.3677 11.3603 9.28868 11.2197 9.14801C11.079 9.00734 11 8.81655 11 8.61762V2.61793C11 2.419 10.921 2.22821 10.7803 2.08754C10.6397 1.94687 10.4489 1.86785 10.25 1.86785H2.25C2.05109 1.86785 1.86032 1.94687 1.71967 2.08754C1.57902 2.22821 1.5 2.419 1.5 2.61793V18.3697H7.002C7.016 18.8738 7.118 19.3858 7.324 19.8699H0.75C0.551088 19.8699 0.360322 19.7909 0.21967 19.6502C0.0790175 19.5095 0 19.3188 0 19.1198V2.61793ZM14 13.1191C14 13.7159 13.7629 14.2883 13.341 14.7103C12.919 15.1323 12.3467 15.3694 11.75 15.3694C11.1533 15.3694 10.581 15.1323 10.159 14.7103C9.73705 14.2883 9.5 13.7159 9.5 13.1191C9.5 12.5223 9.73705 11.95 10.159 11.528C10.581 11.106 11.1533 10.8689 11.75 10.8689C12.3467 10.8689 12.919 11.106 13.341 11.528C13.7629 11.95 14 12.5223 14 13.1191ZM15.5 18.2447C15.5 19.8009 14.429 21.3701 11.75 21.3701C9.071 21.3701 8 19.8069 8 18.2447C8 17.2096 8.72 16.3695 9.607 16.3695H13.893C14.78 16.3695 15.5 17.2096 15.5 18.2447ZM16.75 15.8694C17.2141 15.8694 17.6592 15.6851 17.9874 15.3568C18.3156 15.0286 18.5 14.5834 18.5 14.1192C18.5 13.6551 18.3156 13.2099 17.9874 12.8817C17.6592 12.5534 17.2141 12.369 16.75 12.369C16.2859 12.369 15.8408 12.5534 15.5126 12.8817C15.1844 13.2099 15 13.6551 15 14.1192C15 14.5834 15.1844 15.0286 15.5126 15.3568C15.8408 15.6851 16.2859 15.8694 16.75 15.8694ZM16.498 18.2447C16.5034 18.9929 16.302 19.728 15.916 20.369L16.004 20.37C18.147 20.37 19.004 19.2718 19.004 18.1827C19.004 17.4576 18.429 16.8696 17.718 16.8696H16.178C16.386 17.2936 16.498 17.7697 16.498 18.2447Z" fill="#492828"/>
</svg>
