<svg width="27" height="44" viewBox="0 0 27 44" fill="none" xmlns="http://www.w3.org/2000/svg">
<path d="M17.5449 8.60298C19.7805 8.60298 21.5942 6.78901 21.5942 4.5532C21.5942 2.31738 19.7805 0.503418 17.5449 0.503418C15.3094 0.503418 13.4956 2.31738 13.4956 4.5532C13.4956 6.78901 15.3094 8.60298 17.5449 8.60298ZM25.517 21.1826L23.5514 20.187L22.7331 17.7065C21.493 13.9436 18.0342 11.3113 14.1114 11.3028C11.0745 11.2944 9.39568 12.155 6.24059 13.429C4.41839 14.163 2.92521 15.5551 2.04786 17.3269L1.48264 18.4743C0.824626 19.8074 1.3561 21.4273 2.68056 22.0938C3.99659 22.7603 5.59944 22.2204 6.26589 20.8873L6.83111 19.7399C7.12637 19.1493 7.61567 18.6852 8.22306 18.4406L10.4839 17.5294L9.20165 22.6506C8.76297 24.4056 9.23539 26.2701 10.4586 27.6116L15.5118 33.1295C16.1192 33.796 16.5495 34.5975 16.7688 35.4665L18.3126 41.6509C18.6754 43.0936 20.1432 43.9795 21.5858 43.6167C23.0284 43.2539 23.9142 41.7859 23.5514 40.3431L21.6786 32.8342C21.4593 31.9651 21.029 31.1552 20.4216 30.4971L16.5832 26.3039L18.0342 20.5076L18.4982 21.8998C18.9453 23.2581 19.907 24.3802 21.1724 25.0215L23.138 26.017C24.4541 26.6836 26.0569 26.1436 26.7234 24.8105C27.373 23.4859 26.8415 21.8491 25.517 21.1826ZM6.20684 33.0535C5.93689 33.7369 5.53196 34.3528 5.00892 34.8675L0.790882 39.0944C-0.263627 40.1491 -0.263627 41.8618 0.790882 42.9164C1.84539 43.971 3.54948 43.971 4.60399 42.9164L9.61502 37.9048C10.1296 37.3902 10.5345 36.7743 10.8129 36.0909L11.9518 33.2391C7.28666 28.1516 8.68705 29.7124 7.95311 28.7084L6.20684 33.0535Z" fill="#878787"/>
</svg>
