<svg width="20" height="22" viewBox="0 0 20 22" fill="none" xmlns="http://www.w3.org/2000/svg">
<path fill-rule="evenodd" clip-rule="evenodd" d="M3.57018 8.3168C2.95028 8.03958 2.48001 7.56997 2.03893 7.09868C1.53619 6.56144 1.52961 5.88811 1.52961 5.5357C1.52961 4.97536 2.04469 4.53347 2.88204 4.51289C3.32559 4.50197 3.59649 4.61496 3.96605 4.89009C4.23078 5.08667 4.85109 5.73018 4.57444 6.25649C4.56005 6.28379 4.53662 6.31698 4.50332 6.35604C4.47053 6.39493 4.45222 6.44439 4.45162 6.49572C4.45102 6.54705 4.46816 6.59695 4.50003 6.63663C4.53196 6.67632 4.57778 6.70172 4.62775 6.70745C4.67771 6.71317 4.7279 6.69877 4.76764 6.66729L4.81122 6.63285C5.35794 6.20608 5.65556 6.04731 5.65556 5.41514C5.65556 4.22558 4.11938 3.08264 2.63581 3.11919C1.15389 3.15573 0 4.2491 0 5.52393C0 6.22121 0.434917 7.21041 1.14608 7.97069C1.60075 8.45696 2.14973 8.84094 2.7579 9.09808C2.71926 9.16319 2.67938 9.23334 2.63869 9.30937C2.23583 10.0596 2.28845 10.1507 2.23707 11.0878C2.18609 12.0254 2.4574 13.7013 2.3534 14.5271C2.24899 15.3525 1.72733 15.4445 1.61264 16.0393C1.53988 16.4161 1.35942 18.0517 1.07126 20.9454C1.06533 21.004 1.0715 21.0632 1.08938 21.1191C1.10726 21.1751 1.13644 21.2266 1.17504 21.2703C1.21363 21.314 1.26078 21.349 1.31344 21.3729C1.36609 21.3968 1.42307 21.4092 1.48069 21.4091H2.32627C2.43508 21.4091 2.53942 21.365 2.61636 21.2864C2.6933 21.2077 2.73652 21.1011 2.73652 20.9899V20.7812C2.73652 20.6489 2.67568 20.5241 2.57209 20.4451L2.44137 20.3447C2.37986 20.2977 2.3325 20.2339 2.30467 20.1607C2.27684 20.0875 2.26966 20.0078 2.28393 19.9306C2.50879 18.7074 2.70651 17.9711 2.8767 17.7216C3.00249 17.5368 3.57059 17.2356 4.30313 16.6517C4.43426 16.5467 4.67022 16.3241 5.01017 15.983C5.03753 15.9554 5.07192 15.9361 5.10944 15.9275C5.14697 15.9188 5.18611 15.9211 5.22243 15.9341C5.25874 15.947 5.29078 15.9701 5.31488 16.0008C5.33898 16.0314 5.35419 16.0683 5.35877 16.1074C5.42043 16.6127 5.49771 17.0386 5.58938 17.3851C5.70037 17.8026 6.04156 18.8918 6.61254 20.6518C6.6397 20.7357 6.69206 20.8087 6.76217 20.8604C6.83228 20.9122 6.91658 20.94 7.00306 20.9399H8.07926C8.17669 20.9398 8.2701 20.9002 8.339 20.8298C8.40789 20.7594 8.44665 20.664 8.44676 20.5644V20.5392C8.44687 20.4408 8.41313 20.3454 8.35145 20.2698C8.28977 20.1942 8.20405 20.1431 8.10926 20.1255L7.64763 20.039C7.3163 18.8023 7.17201 17.8967 7.21394 17.3217C7.24354 16.9151 7.51238 16.4421 7.78328 15.6188C7.8396 15.4475 7.91894 15.098 8.02088 14.5687C8.02631 14.5406 8.03731 14.5139 8.05321 14.4903C8.06911 14.4667 8.08956 14.4467 8.11332 14.4314C8.13708 14.4162 8.16364 14.4061 8.19136 14.4018C8.21908 14.3974 8.24738 14.3989 8.27452 14.4062L11.0135 15.1312C11.0436 15.1391 11.0716 15.1539 11.0953 15.1746C11.119 15.1952 11.1379 15.221 11.1504 15.2501C11.1629 15.2793 11.1688 15.3109 11.1676 15.3427C11.1663 15.3745 11.1581 15.4056 11.1434 15.4336L11.0789 15.5579C10.9555 15.794 10.8914 16.0578 10.8914 16.3254V20.257C10.8914 20.3876 10.951 20.5111 11.0526 20.5909L11.6268 21.0403C11.6988 21.0968 11.7869 21.1273 11.8776 21.1273H12.2899C12.399 21.1272 12.5035 21.0828 12.5806 21.004C12.6577 20.9251 12.701 20.8183 12.701 20.7068V20.4926C12.701 20.3401 12.6208 20.1994 12.4905 20.1251L12.1945 19.9562C12.1254 19.9169 12.0688 19.858 12.0316 19.7866C11.9944 19.7152 11.9782 19.6344 11.9849 19.5538C12.0317 18.9863 12.0893 18.5545 12.1583 18.2588C12.2291 17.9539 12.4009 17.4095 12.6734 16.6265C12.6846 16.5943 12.7034 16.5654 12.728 16.5422C12.7527 16.5191 12.7825 16.5024 12.8148 16.4937C12.8472 16.4851 12.8812 16.4846 12.9138 16.4923C12.9464 16.5001 12.9766 16.5159 13.0019 16.5383L13.082 16.6089C13.283 16.7866 13.5285 16.9029 13.7907 16.9462L16.3608 17.3662C16.3973 17.3722 16.4317 17.3882 16.4601 17.4124C16.4885 17.4367 16.51 17.4684 16.5222 17.5041C16.5345 17.5398 16.5371 17.5783 16.5297 17.6154C16.5223 17.6525 16.5053 17.6868 16.4804 17.7149L16.207 18.0223C16.138 18.0996 16.1001 18.2004 16.1001 18.305V18.5797C16.1002 18.6359 16.1112 18.6916 16.1327 18.7434C16.1541 18.7951 16.1855 18.842 16.225 18.8812C16.2645 18.9203 16.3112 18.951 16.3625 18.9714C16.4138 18.9917 16.4685 19.0014 16.5235 18.9998L16.8606 18.9897C16.9219 18.9879 16.9821 18.972 17.0366 18.9434C17.0912 18.9148 17.1388 18.874 17.1759 18.8242L17.601 18.2555C17.6556 18.1822 17.6852 18.0926 17.6852 18.0005V17.1654C17.6852 17.0197 17.6112 16.884 17.49 16.8076C15.7343 15.6986 14.7822 15.0858 14.6338 14.9678C14.4801 14.846 14.416 14.6422 14.4415 14.357C14.7276 13.4888 15.1859 13.1813 15.3919 12.6672C15.5974 12.1535 15.9797 10.5544 16.1688 9.94027C16.549 8.70534 16.8828 8.05218 16.9728 7.85686C17.1751 7.41833 17.5319 7.35616 17.9089 7.20495C18.2858 7.05331 19.0023 7.07642 19.4685 6.65847C19.9342 6.24011 19.8915 5.80326 20 5.32777V4.74601C20 4.51373 19.8154 4.32555 19.5881 4.32555H18.4716C18.3208 4.32555 18.1822 4.24154 18.1099 4.10587C17.9824 3.86686 17.779 3.63836 17.499 3.42078C17.1264 3.13307 16.7019 2.92337 16.2498 2.80373C16.3525 1.49572 16.3525 0.756861 16.2498 0.587164C16.147 0.417466 15.8613 0.682934 15.3919 1.38357C15.3249 0.558601 15.1941 0.25617 14.9993 0.476272C14.8176 0.682094 14.5039 1.42977 14.0587 2.7193C14.0004 2.88732 13.9161 3.0461 13.8092 3.18765C13.6222 3.43464 13.4536 3.73035 13.3028 4.07394C13.0163 4.72753 12.6816 6.43459 12.0893 7.27426C11.4973 8.11392 11.1516 8.18281 10.2966 8.33823C9.72849 8.44156 7.76972 8.1114 6.16529 8.04756C4.9296 7.99799 3.93563 8.21053 3.7564 8.25758C3.69186 8.2748 3.6302 8.29412 3.57018 8.3168Z" fill="#492828"/>
</svg>
