<svg width="36" height="37" viewBox="0 0 36 37" fill="none" xmlns="http://www.w3.org/2000/svg">
<path d="M2.88867 35.5854H10.4448M6.66675 5.36005V1.58154M6.66675 28.0293V35.5854M29.3334 5.36005V1.58154M6.66675 20.4723V12.9162M29.3334 20.4723V12.9162M29.3334 28.0293V35.5854M25.5553 35.5854H33.1115" stroke="#492828" stroke-width="2" stroke-linecap="round" stroke-linejoin="round"/>
<path d="M33.1114 12.916H2.88859C2.3877 12.916 1.90733 12.717 1.55315 12.3628C1.19898 12.0085 1 11.5281 1 11.0272V7.24867C1 6.74772 1.19898 6.2673 1.55315 5.91308C1.90733 5.55886 2.3877 5.35986 2.88859 5.35986H33.1114C33.6123 5.35986 34.0927 5.55886 34.4468 5.91308C34.801 6.2673 35 6.74772 35 7.24867V11.0272C35 11.5281 34.801 12.0085 34.4468 12.3628C34.0927 12.717 33.6123 12.916 33.1114 12.916ZM33.1114 28.0291H2.88859C2.6405 28.0291 2.39484 27.9802 2.16565 27.8853C1.93645 27.7903 1.72822 27.6511 1.55283 27.4756C1.37745 27.3001 1.23836 27.0918 1.1435 26.8625C1.04864 26.6332 0.999881 26.3875 1 26.1394V22.3618C0.999881 22.1137 1.04864 21.868 1.1435 21.6387C1.23836 21.4094 1.37745 21.2011 1.55283 21.0256C1.72822 20.8501 1.93645 20.7109 2.16565 20.616C2.39484 20.521 2.6405 20.4721 2.88859 20.4721H33.1114C33.3595 20.4721 33.6052 20.521 33.8344 20.616C34.0635 20.7109 34.2718 20.8501 34.4472 21.0256C34.6226 21.2011 34.7616 21.4094 34.8565 21.6387C34.9514 21.868 35.0001 22.1137 35 22.3618V26.1394C35.0001 26.3875 34.9514 26.6332 34.8565 26.8625C34.7616 27.0918 34.6226 27.3001 34.4472 27.4756C34.2718 27.6511 34.0635 27.7903 33.8344 27.8853C33.6052 27.9802 33.3595 28.0291 33.1114 28.0291Z" stroke="#492828" stroke-width="2" stroke-linecap="round" stroke-linejoin="round"/>
</svg>
