<svg width="32" height="33" viewBox="0 0 32 33" fill="none" xmlns="http://www.w3.org/2000/svg">
<path d="M11 9.08252H21M11 13.713H21M18.0833 25.7511L11 18.3436H13.5C19.0567 18.3436 19.0567 9.08252 13.5 9.08252" stroke="#492828" stroke-width="2" stroke-linecap="round" stroke-linejoin="round"/>
<path d="M1 12.2494C1 8.51567 1 6.64879 1.72667 5.22196C2.36581 3.96746 3.38564 2.94751 4.64 2.30829C6.06667 1.58154 7.93333 1.58154 11.6667 1.58154H20.3333C24.0667 1.58154 25.9333 1.58154 27.36 2.30829C28.6144 2.94751 29.6342 3.96746 30.2733 5.22196C31 6.64879 31 8.51567 31 12.2494V20.9171C31 24.6508 31 26.5177 30.2733 27.9446C29.6342 29.1991 28.6144 30.219 27.36 30.8582C25.9333 31.585 24.0667 31.585 20.3333 31.585H11.6667C7.93333 31.585 6.06667 31.585 4.64 30.8582C3.38564 30.219 2.36581 29.1991 1.72667 27.9446C1 26.5177 1 24.6508 1 20.9171V12.2494Z" stroke="#492828" stroke-width="2" stroke-linecap="round" stroke-linejoin="round"/>
</svg>
