<svg width="30" height="31" viewBox="0 0 30 31" fill="none" xmlns="http://www.w3.org/2000/svg">
<path d="M20.6 12.7659L23.61 13.669C25.5322 14.2458 26.494 14.5343 27.047 15.2791C27.6 16.0212 27.6 17.0265 27.6 19.033V29.5677M9.4 11.3657H13.6M9.4 16.9663H13.6M15 29.5677V25.3672C15 24.0469 15 23.3874 14.5898 22.9772C14.1796 22.5669 13.5202 22.5669 12.2 22.5669H10.8C9.4798 22.5669 8.8204 22.5669 8.4102 22.9772C8 23.3874 8 24.0469 8 25.3672V29.5677M1 29.5677H29" stroke="#492828" stroke-width="2" stroke-linecap="round" stroke-linejoin="round"/>
<path d="M2.40039 29.5681V8.16961C2.40039 4.65523 2.40039 2.89664 3.50779 2.02434C4.61519 1.15204 6.24619 1.6267 9.50959 2.5732L16.5096 4.60482C18.478 5.17608 19.4622 5.46171 20.0306 6.2416C20.6004 7.02008 20.6004 8.08 20.6004 10.2026V29.5681" stroke="#492828" stroke-width="2" stroke-linecap="round" stroke-linejoin="round"/>
</svg>
