<svg width="28" height="29" viewBox="0 0 28 29" fill="none" xmlns="http://www.w3.org/2000/svg">
<path d="M24.9992 20.7088V8.4243C25.6815 8.24943 26.3054 7.89708 26.8076 7.40305C27.3098 6.90902 27.6722 6.29089 27.8583 5.61143C28.0443 4.93197 28.0472 4.21537 27.8668 3.5344C27.6864 2.85344 27.3289 2.23236 26.8309 1.73422C26.3328 1.23608 25.7118 0.878628 25.0309 0.698159C24.35 0.51769 23.6335 0.52063 22.9541 0.706682C22.2747 0.892734 21.6566 1.25527 21.1627 1.75748C20.6687 2.25969 20.3164 2.88369 20.1415 3.56611H7.85846C7.68361 2.88369 7.33131 2.25969 6.83733 1.75748C6.34335 1.25527 5.72529 0.892734 5.04591 0.706682C4.36652 0.52063 3.65001 0.51769 2.96912 0.698159C2.28824 0.878628 1.66722 1.23608 1.16914 1.73422C0.671061 2.23236 0.31365 2.85344 0.133202 3.5344C-0.0472464 4.21537 -0.0443061 4.93197 0.141724 5.61143C0.327755 6.29089 0.69025 6.90902 1.1924 7.40305C1.69455 7.89708 2.31848 8.24943 3.00083 8.4243V20.7088C2.31848 20.8837 1.69455 21.236 1.1924 21.73C0.69025 22.2241 0.327755 22.8422 0.141724 23.5217C-0.0443061 24.2011 -0.0472464 24.9177 0.133202 25.5987C0.31365 26.2796 0.671061 26.9007 1.16914 27.3989C1.66722 27.897 2.28824 28.2545 2.96912 28.4349C3.65001 28.6154 4.36652 28.6125 5.04591 28.4264C5.72529 28.2403 6.34335 27.8778 6.83733 27.3756C7.33131 26.8734 7.68361 26.2494 7.85846 25.567H20.1415C20.3164 26.2494 20.6687 26.8734 21.1627 27.3756C21.6566 27.8778 22.2747 28.2403 22.9541 28.4264C23.6335 28.6125 24.35 28.6154 25.0309 28.4349C25.7118 28.2545 26.3328 27.897 26.8309 27.3989C27.3289 26.9007 27.6864 26.2796 27.8668 25.5987C28.0472 24.9177 28.0443 24.2011 27.8583 23.5217C27.6722 22.8422 27.3098 22.2241 26.8076 21.73C26.3054 21.236 25.6815 20.8837 24.9992 20.7088ZM23.9993 2.56607C24.3948 2.56607 24.7814 2.68337 25.1103 2.90315C25.4392 3.12292 25.6955 3.43529 25.8469 3.80075C25.9982 4.16622 26.0378 4.56837 25.9607 4.95635C25.8835 5.34432 25.693 5.7007 25.4134 5.98042C25.1337 6.26013 24.7773 6.45062 24.3894 6.5278C24.0015 6.60497 23.5994 6.56536 23.2339 6.41398C22.8685 6.2626 22.5562 6.00624 22.3364 5.67733C22.1167 5.34842 21.9994 4.96173 21.9994 4.56615C21.9994 4.0357 22.2101 3.52697 22.5851 3.15188C22.9602 2.77679 23.4689 2.56607 23.9993 2.56607ZM2.0009 4.56615C2.0009 4.17057 2.11819 3.78388 2.33794 3.45497C2.55768 3.12605 2.87002 2.8697 3.23544 2.71832C3.60087 2.56694 4.00297 2.52733 4.3909 2.6045C4.77883 2.68167 5.13517 2.87216 5.41486 3.15188C5.69454 3.4316 5.88501 3.78798 5.96217 4.17595C6.03934 4.56393 5.99974 4.96608 5.84837 5.33155C5.69701 5.69701 5.44068 6.00938 5.11181 6.22915C4.78293 6.44893 4.39628 6.56623 4.00075 6.56623C3.47036 6.56623 2.96169 6.35551 2.58664 5.98042C2.2116 5.60533 2.0009 5.0966 2.0009 4.56615ZM4.00075 26.567C3.60522 26.567 3.21857 26.4497 2.88969 26.2299C2.56082 26.0102 2.30449 25.6978 2.15313 25.3323C2.00177 24.9669 1.96216 24.5647 2.03933 24.1767C2.11649 23.7888 2.30696 23.4324 2.58664 23.1527C2.86633 22.8729 3.22267 22.6825 3.6106 22.6053C3.99853 22.5281 4.40064 22.5677 4.76606 22.7191C5.13148 22.8705 5.44382 23.1268 5.66357 23.4557C5.88331 23.7847 6.0006 24.1714 6.0006 24.5669C6.0006 25.0974 5.7899 25.6061 5.41486 25.9812C5.03981 26.3563 4.53114 26.567 4.00075 26.567ZM20.1415 23.5669H7.85846C7.67877 22.8796 7.31933 22.2526 6.81707 21.7503C6.31482 21.248 5.68787 20.8885 5.00068 20.7088V8.4243C5.68787 8.24459 6.31482 7.88511 6.81707 7.38279C7.31933 6.88048 7.67877 6.25346 7.85846 5.56619H20.1415C20.3212 6.25346 20.6807 6.88048 21.1829 7.38279C21.6852 7.88511 22.3121 8.24459 22.9993 8.4243V20.7088C22.3117 20.8875 21.6842 21.2467 21.1818 21.7492C20.6794 22.2516 20.3203 22.8792 20.1415 23.5669ZM23.9993 26.567C23.6037 26.567 23.2171 26.4497 22.8882 26.2299C22.5593 26.0102 22.303 25.6978 22.1516 25.3323C22.0003 24.9669 21.9607 24.5647 22.0378 24.1767C22.115 23.7888 22.3055 23.4324 22.5851 23.1527C22.8648 22.8729 23.2212 22.6825 23.6091 22.6053C23.997 22.5281 24.3991 22.5677 24.7646 22.7191C25.13 22.8705 25.4423 23.1268 25.6621 23.4557C25.8818 23.7847 25.9991 24.1714 25.9991 24.5669C25.9983 25.0971 25.7874 25.6054 25.4125 25.9803C25.0376 26.3552 24.5294 26.5662 23.9993 26.567Z" fill="#492828"/>
</svg>
