<svg width="18" height="18" viewBox="0 0 18 18" fill="none" xmlns="http://www.w3.org/2000/svg">
<path d="M7.45919 17.0492C7.15815 17.0492 6.90598 16.9471 6.70269 16.743C6.49869 16.5396 6.39669 16.2872 6.39669 15.986V9.60703L0.234191 1.73963C-0.0314337 1.38525 -0.0711003 1.01314 0.115191 0.623314C0.300775 0.233487 0.623775 0.0385742 1.08419 0.0385742H15.9592C16.4196 0.0385742 16.743 0.233487 16.9293 0.623314C17.1148 1.01314 17.0748 1.38525 16.8092 1.73963L10.6467 9.60703V15.986C10.6467 16.2872 10.545 16.5396 10.3418 16.743C10.1378 16.9471 9.88523 17.0492 9.58419 17.0492H7.45919Z" fill="white"/>
</svg>
