<svg width="14" height="22" viewBox="0 0 14 22" fill="none" xmlns="http://www.w3.org/2000/svg">
<path d="M13 8.8949L10 10.3951L6 7.39473L5 12.8954L8.5 15.8957L9 20.3962M13 7.39473V20.3962M5 15.8957L3 20.3962M3.5 7.39473C2 8.39484 1 10.8951 1 10.8951L3 11.8952M7 5.3945C7.53043 5.3945 8.03914 5.18376 8.41421 4.80865C8.78929 4.43353 9 3.92476 9 3.39427C9 2.86378 8.78929 2.35501 8.41421 1.9799C8.03914 1.60478 7.53043 1.39404 7 1.39404C6.46957 1.39404 5.96086 1.60478 5.58579 1.9799C5.21071 2.35501 5 2.86378 5 3.39427C5 3.92476 5.21071 4.43353 5.58579 4.80865C5.96086 5.18376 6.46957 5.3945 7 5.3945Z" stroke="#492828" stroke-width="2" stroke-linecap="round" stroke-linejoin="round"/>
</svg>
