<svg width="64" height="65" viewBox="0 0 64 65" fill="none" xmlns="http://www.w3.org/2000/svg">
<g filter="url(#filter0_d_184_1519)">
<path d="M48.7494 41.4827C49.7852 39.8574 50.3737 37.9023 50.3737 35.8294C50.3737 29.9405 45.6655 25.2294 39.7803 25.2294C33.895 25.2294 29.1869 29.9405 29.1869 35.8294C29.1869 41.7183 33.895 46.4294 39.7803 46.4294C41.8284 46.4294 43.7587 45.8405 45.383 44.8276L52.7278 52.0592L56 48.785L48.7494 41.4827ZM39.7803 41.7183C38.2194 41.7183 36.7225 41.0979 35.6188 39.9935C34.5151 38.8891 33.895 37.3912 33.895 35.8294C33.895 34.2676 34.5151 32.7697 35.6188 31.6653C36.7225 30.5609 38.2194 29.9405 39.7803 29.9405C41.3411 29.9405 42.8381 30.5609 43.9418 31.6653C45.0455 32.7697 45.6655 34.2676 45.6655 35.8294C45.6655 37.3912 45.0455 38.8891 43.9418 39.9935C42.8381 41.0979 41.3411 41.7183 39.7803 41.7183ZM15.0623 44.0739V25.2294H8L31.541 4.0293L55.0819 25.2294H50.7975C48.0196 22.332 44.1118 20.5182 39.7803 20.5182C31.3526 20.5182 24.4787 27.3965 24.4787 35.8294C24.4787 38.8681 25.3732 41.7183 26.9034 44.0739H15.0623Z" fill="#1D3A76"/>
</g>
<defs>
<filter id="filter0_d_184_1519" x="0" y="0.0292969" width="64" height="64.03" filterUnits="userSpaceOnUse" color-interpolation-filters="sRGB">
<feFlood flood-opacity="0" result="BackgroundImageFix"/>
<feColorMatrix in="SourceAlpha" type="matrix" values="0 0 0 0 0 0 0 0 0 0 0 0 0 0 0 0 0 0 127 0" result="hardAlpha"/>
<feOffset dy="4"/>
<feGaussianBlur stdDeviation="4"/>
<feComposite in2="hardAlpha" operator="out"/>
<feColorMatrix type="matrix" values="0 0 0 0 0 0 0 0 0 0 0 0 0 0 0 0 0 0 0.25 0"/>
<feBlend mode="normal" in2="BackgroundImageFix" result="effect1_dropShadow_184_1519"/>
<feBlend mode="normal" in="SourceGraphic" in2="effect1_dropShadow_184_1519" result="shape"/>
</filter>
</defs>
</svg>
