<svg width="20" height="22" viewBox="0 0 20 22" fill="none" xmlns="http://www.w3.org/2000/svg">
<path d="M10 13.4081C10.394 13.4081 10.7841 13.3305 11.1481 13.1797C11.512 13.0289 11.8427 12.8079 12.1213 12.5293C12.3999 12.2507 12.6209 11.92 12.7716 11.5559C12.9224 11.1919 13 10.8018 13 10.4078M10 13.4081C9.20435 13.4081 8.44129 13.092 7.87868 12.5293C7.31607 11.9667 7 11.2035 7 10.4078M10 13.4081V16.4085M13 10.4078C13 10.0138 12.9224 9.6236 12.7716 9.25958C12.6209 8.89557 12.3999 8.56481 12.1213 8.2862C11.8427 8.0076 11.512 7.78659 11.1481 7.63581C10.7841 7.48503 10.394 7.40742 10 7.40742M13 10.4078H16M10 7.40742C9.20435 7.40742 8.44129 7.72353 7.87868 8.2862C7.31607 8.84888 7 9.61203 7 10.4078M10 7.40742V4.40708M7 10.4078H4M6 6.40731L8 8.40754M12 12.408L14 14.4082M14 6.40731L12 8.40754M8 12.408L6 14.4082M10 21.409C10 21.409 1 17.4086 1 10.4078V4.40708L10 1.40674L19 4.40708V10.4078C19 17.4086 10 21.409 10 21.409Z" stroke="#492828"/>
</svg>
