<svg width="28" height="28" viewBox="0 0 28 28" fill="none" xmlns="http://www.w3.org/2000/svg">
<circle cx="14" cy="14" r="13.875" fill="#FBAF01" stroke="#888888" stroke-width="0.25"/>
<path d="M24.2016 9.5766H12.7339L13.8921 6.68099C13.989 6.43909 14.0353 6.17995 14.0284 5.91948C14.0214 5.65901 13.9613 5.40272 13.8516 5.16635C13.742 4.92997 13.5852 4.71851 13.3908 4.54496C13.1965 4.37141 12.9687 4.23943 12.7215 4.15713L12.3965 4.04914C12.2142 3.98823 12.0178 3.98384 11.8329 4.03654C11.648 4.08923 11.4834 4.19655 11.3606 4.34443L7.22075 9.31093C7.07801 9.48277 6.99991 9.69915 7 9.92254V20.0887C7 20.5956 7.20137 21.0818 7.5598 21.4402C7.91824 21.7986 8.40439 22 8.91129 22H15.8015C16.2717 21.9998 16.7254 21.8263 17.0757 21.5127C17.426 21.199 17.6484 20.7672 17.7004 20.2999L18.4678 13.3992H24.2016C24.7085 13.3992 25.1947 13.1978 25.5531 12.8394C25.9116 12.4809 26.1129 11.9948 26.1129 11.4879C26.1129 10.981 25.9116 10.4948 25.5531 10.1364C25.1947 9.77797 24.7085 9.5766 24.2016 9.5766Z" fill="white"/>
</svg>
