<svg width="28" height="29" viewBox="0 0 28 29" fill="none" xmlns="http://www.w3.org/2000/svg">
<path d="M15.2727 12.0208H1.27273C0.935179 12.0208 0.611456 12.1549 0.372773 12.3936C0.134091 12.6323 0 12.9561 0 13.2937V27.2953C0 27.6329 0.134091 27.9566 0.372773 28.1953C0.611456 28.434 0.935179 28.5681 1.27273 28.5681H15.2727C15.6103 28.5681 15.934 28.434 16.1727 28.1953C16.4114 27.9566 16.5455 27.6329 16.5455 27.2953V13.2937C16.5455 12.9561 16.4114 12.6323 16.1727 12.3936C15.934 12.1549 15.6103 12.0208 15.2727 12.0208ZM14 26.0224H2.54545V14.5665H14V26.0224ZM28 23.4767V26.0224C28 26.6976 27.7318 27.3451 27.2545 27.8225C26.7771 28.2999 26.1296 28.5681 25.4545 28.5681H21.6364C21.2988 28.5681 20.9751 28.434 20.7364 28.1953C20.4977 27.9566 20.3636 27.6329 20.3636 27.2953C20.3636 26.9577 20.4977 26.6339 20.7364 26.3952C20.9751 26.1565 21.2988 26.0224 21.6364 26.0224H25.4545V23.4767C25.4545 23.1391 25.5886 22.8153 25.8273 22.5766C26.066 22.3379 26.3897 22.2038 26.7273 22.2038C27.0648 22.2038 27.3885 22.3379 27.6272 22.5766C27.8659 22.8153 28 23.1391 28 23.4767ZM28 12.0208V17.1123C28 17.4499 27.8659 17.7736 27.6272 18.0123C27.3885 18.2511 27.0648 18.3852 26.7273 18.3852C26.3897 18.3852 26.066 18.2511 25.8273 18.0123C25.5886 17.7736 25.4545 17.4499 25.4545 17.1123V12.0208C25.4545 11.6832 25.5886 11.3594 25.8273 11.1207C26.066 10.882 26.3897 10.7479 26.7273 10.7479C27.0648 10.7479 27.3885 10.882 27.6272 11.1207C27.8659 11.3594 28 11.6832 28 12.0208ZM28 3.11069V5.65643C28 5.99402 27.8659 6.31778 27.6272 6.55649C27.3885 6.7952 27.0648 6.92931 26.7273 6.92931C26.3897 6.92931 26.066 6.7952 25.8273 6.55649C25.5886 6.31778 25.4545 5.99402 25.4545 5.65643V3.11069H22.9091C22.5715 3.11069 22.2478 2.97658 22.0091 2.73787C21.7705 2.49916 21.6364 2.1754 21.6364 1.83781C21.6364 1.50023 21.7705 1.17647 22.0091 0.937757C22.2478 0.699048 22.5715 0.564941 22.9091 0.564941H25.4545C26.1296 0.564941 26.7771 0.833153 27.2545 1.31057C27.7318 1.78799 28 2.43551 28 3.11069ZM17.8182 1.83781C17.8182 2.1754 17.6841 2.49916 17.4454 2.73787C17.2067 2.97658 16.883 3.11069 16.5455 3.11069H11.4545C11.117 3.11069 10.7933 2.97658 10.5546 2.73787C10.3159 2.49916 10.1818 2.1754 10.1818 1.83781C10.1818 1.50023 10.3159 1.17647 10.5546 0.937757C10.7933 0.699048 11.117 0.564941 11.4545 0.564941H16.5455C16.883 0.564941 17.2067 0.699048 17.4454 0.937757C17.6841 1.17647 17.8182 1.50023 17.8182 1.83781ZM0 6.92931V3.11069C0 2.43551 0.268181 1.78799 0.745546 1.31057C1.22291 0.833153 1.87036 0.564941 2.54545 0.564941H5.09091C5.42846 0.564941 5.75218 0.699048 5.99086 0.937757C6.22955 1.17647 6.36364 1.50023 6.36364 1.83781C6.36364 2.1754 6.22955 2.49916 5.99086 2.73787C5.75218 2.97658 5.42846 3.11069 5.09091 3.11069H2.54545V6.92931C2.54545 7.26689 2.41136 7.59065 2.17268 7.82936C1.934 8.06807 1.61028 8.20218 1.27273 8.20218C0.935179 8.20218 0.611456 8.06807 0.372773 7.82936C0.134091 7.59065 0 7.26689 0 6.92931Z" fill="#492828"/>
</svg>
