<svg width="36" height="37" viewBox="0 0 36 37" fill="none" xmlns="http://www.w3.org/2000/svg">
<path d="M10.4211 25.1232L18 29.8605L25.5789 25.1232V9.01606H10.4211V25.1232ZM7.57895 18.4908C7.57895 17.4857 7.1797 16.5217 6.46904 15.811C5.75837 15.1002 4.7945 14.7009 3.78947 14.7009C2.78444 14.7009 1.82058 15.1002 1.10991 15.811C0.399247 16.5217 0 17.4857 0 18.4908C0 19.496 0.399247 20.46 1.10991 21.1707C1.82058 21.8814 2.78444 22.2807 3.78947 22.2807C4.7945 22.2807 5.75837 21.8814 6.46904 21.1707C7.1797 20.46 7.57895 19.496 7.57895 18.4908ZM32.2105 14.7009C31.2055 14.7009 30.2416 15.1002 29.531 15.811C28.8203 16.5217 28.4211 17.4857 28.4211 18.4908C28.4211 19.496 28.8203 20.46 29.531 21.1707C30.2416 21.8814 31.2055 22.2807 32.2105 22.2807C33.2156 22.2807 34.1794 21.8814 34.8901 21.1707C35.6008 20.46 36 19.496 36 18.4908C36 17.4857 35.6008 16.5217 34.8901 15.811C34.1794 15.1002 33.2156 14.7009 32.2105 14.7009ZM7.55053 11.2881C8.7183 9.59563 10.2791 8.21165 12.0991 7.25486C13.919 6.29807 15.9439 5.797 18 5.79464C20.0244 5.79949 22.0184 6.28738 23.8164 7.21778C25.6143 8.14817 27.1644 9.49422 28.3377 11.1441C28.7457 11.7173 29.3647 12.1049 30.0585 12.2216C30.7523 12.3384 31.464 12.1747 32.0372 11.7666C32.6103 11.3585 32.9978 10.7394 33.1146 10.0456C33.2313 9.35169 33.0676 8.63987 32.6596 8.06669C30.9953 5.72804 28.797 3.82043 26.2473 2.50242C23.6976 1.18441 20.8701 0.494064 18 0.48877C15.0859 0.490913 12.2158 1.20019 9.63604 2.55572C7.05629 3.91126 4.84394 5.87257 3.18884 8.27134C2.78952 8.85035 2.63609 9.5641 2.76218 10.2561C2.88827 10.9481 3.2836 11.5618 3.86147 11.9627C4.44035 12.3618 5.15388 12.5149 5.8455 12.3884C6.53711 12.2619 7.15031 11.8662 7.55053 11.2881ZM28.3377 25.8376C27.1646 27.4877 25.6146 28.8339 23.8166 29.7643C22.0186 30.6947 20.0244 31.1825 18 31.187C15.9439 31.1847 13.919 30.6836 12.0991 29.7268C10.2791 28.77 8.7183 27.386 7.55053 25.6935C7.14181 25.137 6.53221 24.7617 5.85124 24.6475C5.17028 24.5333 4.47164 24.6892 3.90374 25.082C3.33585 25.4748 2.94347 26.0735 2.80998 26.751C2.67649 27.4285 2.8124 28.1314 3.18884 28.7103C4.84394 31.1091 7.05629 33.0704 9.63604 34.4259C12.2158 35.7815 15.0859 36.4907 18 36.4929C20.8701 36.4876 23.6976 35.7972 26.2473 34.4792C28.797 33.1612 30.9953 31.2536 32.6596 28.915C33.0369 28.3409 33.177 27.6429 33.0504 26.9676C32.9239 26.2924 32.5405 25.6925 31.9809 25.294C31.4214 24.8956 30.7291 24.7296 30.0497 24.8309C29.3703 24.9323 28.7566 25.2931 28.3377 25.8376Z" fill="#878787"/>
</svg>
