<svg width="42" height="37" viewBox="0 0 42 37" fill="none" xmlns="http://www.w3.org/2000/svg">
<path d="M14.7948 27.5926H36.0316C36.7405 27.5926 37.3593 27.0066 37.3593 26.219C37.3593 25.4314 36.7405 24.8454 36.0316 24.8454H15.1038C14.0665 24.8454 13.4298 24.1125 13.266 22.996L12.9749 21.0731H36.0673C38.7243 21.0731 40.0892 19.4245 40.4712 16.8062L41.927 7.11841C41.9656 6.88837 41.99 6.65612 42 6.42303C42 5.54402 41.3447 4.93927 40.3439 4.93927H10.6277L10.2814 2.61401C10.0998 1.20369 9.59042 0.48877 7.73476 0.48877H1.34632C0.618812 0.48877 0 1.13103 0 1.86392C0 2.61401 0.618812 3.25548 1.3471 3.25548H7.49717L10.4088 23.3624C10.7915 25.9627 12.1557 27.5926 14.7948 27.5926ZM38.9059 7.70442L37.6155 16.4765C37.4696 17.6118 36.8694 18.3079 35.7956 18.3079L12.5758 18.3259L11.0284 7.70442H38.9059ZM16.2327 36.4928C16.6208 36.496 17.0056 36.4215 17.3647 36.2735C17.7238 36.1256 18.0501 35.9072 18.3245 35.631C18.5989 35.3549 18.8159 35.0266 18.963 34.6652C19.11 34.3038 19.184 33.9165 19.1808 33.526C19.1825 33.136 19.1073 32.7495 18.9598 32.3888C18.8122 32.0281 18.5951 31.7004 18.321 31.4246C18.0469 31.1487 17.7213 30.9303 17.3629 30.7818C17.0044 30.6333 16.6204 30.5577 16.2327 30.5593C14.5774 30.5593 13.2668 31.8782 13.2668 33.526C13.2668 35.1926 14.5774 36.4928 16.2327 36.4928ZM33.2473 36.4928C34.9035 36.4928 36.2133 35.1926 36.2133 33.526C36.2133 31.8774 34.9035 30.5593 33.2473 30.5593C31.6099 30.5593 30.2814 31.8782 30.2814 33.526C30.2814 35.1926 31.6099 36.4928 33.2473 36.4928Z" fill="#878787"/>
</svg>
