<svg width="23" height="25" viewBox="0 0 23 25" fill="none" xmlns="http://www.w3.org/2000/svg">
<path d="M7.85644 0.341797C6.35164 0.341797 5.12376 1.68995 5.12376 3.34214V15.9686L6.03465 15.2495L6.94554 15.9686V3.34214C6.94554 2.79208 7.35545 2.34203 7.85644 2.34203H8.76733V0.341797H7.85644ZM18.7871 0.341797C17.2823 0.341797 16.0545 1.68995 16.0545 3.34214V4.34225H7.85644V6.34248H16.0545V8.34271H7.85644V10.3429H16.0545V12.3432H7.85644V14.3434H16.0545V15.9686L16.9653 15.2495L17.8762 15.9686V3.34214C17.8762 2.79208 18.2861 2.34203 18.7871 2.34203H19.698V0.341797H18.7871ZM6.03465 17.0627L5.46535 17.5628C5.46535 17.5628 4.55081 18.3439 3.33022 18.3439C2.10962 18.3439 1.13861 17.5628 1.13861 17.5628L0 19.1249C0 19.1249 1.40551 20.3441 3.33022 20.3441C4.66103 20.3441 5.50725 19.86 6.03465 19.5C6.56479 19.856 7.45473 20.3441 8.79556 20.3441C10.1264 20.3441 10.9726 19.86 11.5 19.5C12.0301 19.856 12.9201 20.3441 14.2609 20.3441C15.5917 20.3441 16.4379 19.86 16.9653 19.5C17.4955 19.856 18.3854 20.3441 19.7263 20.3441C21.6519 20.3441 23 19.1249 23 19.1249L21.8614 17.5628C21.8614 17.5628 20.9469 18.3439 19.7263 18.3439C18.5057 18.3439 17.5347 17.5628 17.5347 17.5628L16.9653 17.0627L16.396 17.5628C16.396 17.5628 15.4815 18.3439 14.2609 18.3439C13.0403 18.3439 12.0693 17.5628 12.0693 17.5628L11.5 17.0627L10.9307 17.5628C10.9307 17.5628 10.0162 18.3439 8.79556 18.3439C7.57497 18.3439 6.60396 17.5628 6.60396 17.5628L6.03465 17.0627ZM6.03465 21.0632L5.46535 21.5632C5.46535 21.5632 4.55081 22.3443 3.33022 22.3443C2.10962 22.3443 1.13861 21.5632 1.13861 21.5632L0 23.1254C0 23.1254 1.40551 24.3445 3.33022 24.3445C4.66103 24.3445 5.50725 23.8605 6.03465 23.5004C6.56479 23.8565 7.45473 24.3445 8.79556 24.3445C10.1264 24.3445 10.9726 23.8605 11.5 23.5004C12.0301 23.8565 12.9201 24.3445 14.2609 24.3445C15.5917 24.3445 16.4379 23.8605 16.9653 23.5004C17.4955 23.8565 18.3854 24.3445 19.7263 24.3445C21.6519 24.3445 23 23.1254 23 23.1254L21.8614 21.5632C21.8614 21.5632 20.9469 22.3443 19.7263 22.3443C18.5057 22.3443 17.5347 21.5632 17.5347 21.5632L16.9653 21.0632L16.396 21.5632C16.396 21.5632 15.4815 22.3443 14.2609 22.3443C13.0403 22.3443 12.0693 21.5632 12.0693 21.5632L11.5 21.0632L10.9307 21.5632C10.9307 21.5632 10.0162 22.3443 8.79556 22.3443C7.57497 22.3443 6.60396 21.5632 6.60396 21.5632L6.03465 21.0632Z" fill="#492828"/>
</svg>
