<svg width="22" height="22" viewBox="0 0 22 22" fill="none" xmlns="http://www.w3.org/2000/svg">
<path d="M0 2.75C0 2.02065 0.289731 1.32118 0.805456 0.805456C1.32118 0.289731 2.02065 0 2.75 0H11C11.7293 0 12.4288 0.289731 12.9445 0.805456C13.4603 1.32118 13.75 2.02065 13.75 2.75V4.125H19.25C19.9793 4.125 20.6788 4.41473 21.1945 4.93046C21.7103 5.44618 22 6.14565 22 6.875V20.625C22 20.9897 21.8551 21.3394 21.5973 21.5973C21.3394 21.8551 20.9897 22 20.625 22H1.375C1.01033 22 0.660591 21.8551 0.402728 21.5973C0.144866 21.3394 0 20.9897 0 20.625V2.75ZM13.75 20.625H16.5V17.875H13.75V20.625ZM17.875 20.625H20.625V6.875C20.625 6.51033 20.4801 6.16059 20.2223 5.90273C19.9644 5.64487 19.6147 5.5 19.25 5.5H11C10.6353 5.5 10.2856 5.64487 10.0277 5.90273C9.76987 6.16059 9.625 6.51033 9.625 6.875V20.625H12.375V17.875C12.375 17.5103 12.5199 17.1606 12.7777 16.9027C13.0356 16.6449 13.3853 16.5 13.75 16.5H16.5C16.8647 16.5 17.2144 16.6449 17.4723 16.9027C17.7301 17.1606 17.875 17.5103 17.875 17.875V20.625ZM12.375 2.75C12.375 2.38533 12.2301 2.03559 11.9723 1.77773C11.7144 1.51987 11.3647 1.375 11 1.375H2.75C2.38533 1.375 2.03559 1.51987 1.77773 1.77773C1.51987 2.03559 1.375 2.38533 1.375 2.75V20.625H8.25V6.875C8.25 6.14565 8.53973 5.44618 9.05546 4.93046C9.57118 4.41473 10.2707 4.125 11 4.125H12.375V2.75ZM13.75 9.28125C13.75 9.55475 13.6413 9.81706 13.448 10.0105C13.2546 10.2038 12.9923 10.3125 12.7188 10.3125C12.4452 10.3125 12.1829 10.2038 11.9895 10.0105C11.7962 9.81706 11.6875 9.55475 11.6875 9.28125C11.6875 9.00775 11.7962 8.74544 11.9895 8.55205C12.1829 8.35865 12.4452 8.25 12.7188 8.25C12.9923 8.25 13.2546 8.35865 13.448 8.55205C13.6413 8.74544 13.75 9.00775 13.75 9.28125ZM4.46875 10.3125C4.74225 10.3125 5.00456 10.2038 5.19795 10.0105C5.39135 9.81706 5.5 9.55475 5.5 9.28125C5.5 9.00775 5.39135 8.74544 5.19795 8.55205C5.00456 8.35865 4.74225 8.25 4.46875 8.25C4.19525 8.25 3.93294 8.35865 3.73955 8.55205C3.54615 8.74544 3.4375 9.00775 3.4375 9.28125C3.4375 9.55475 3.54615 9.81706 3.73955 10.0105C3.93294 10.2038 4.19525 10.3125 4.46875 10.3125ZM5.5 5.15625C5.5 5.42975 5.39135 5.69206 5.19795 5.88545C5.00456 6.07885 4.74225 6.1875 4.46875 6.1875C4.19525 6.1875 3.93294 6.07885 3.73955 5.88545C3.54615 5.69206 3.4375 5.42975 3.4375 5.15625C3.4375 4.88275 3.54615 4.62044 3.73955 4.42705C3.93294 4.23365 4.19525 4.125 4.46875 4.125C4.74225 4.125 5.00456 4.23365 5.19795 4.42705C5.39135 4.62044 5.5 4.88275 5.5 5.15625ZM12.7188 14.4375C12.8542 14.4375 12.9883 14.4108 13.1134 14.359C13.2385 14.3072 13.3522 14.2312 13.448 14.1355C13.5437 14.0397 13.6197 13.926 13.6715 13.8009C13.7233 13.6758 13.75 13.5417 13.75 13.4062C13.75 13.2708 13.7233 13.1367 13.6715 13.0116C13.6197 12.8865 13.5437 12.7728 13.448 12.677C13.3522 12.5813 13.2385 12.5053 13.1134 12.4535C12.9883 12.4017 12.8542 12.375 12.7188 12.375C12.4452 12.375 12.1829 12.4837 11.9895 12.677C11.7962 12.8704 11.6875 13.1327 11.6875 13.4062C11.6875 13.6798 11.7962 13.9421 11.9895 14.1355C12.1829 14.3288 12.4452 14.4375 12.7188 14.4375ZM5.5 17.5312C5.5 17.8048 5.39135 18.0671 5.19795 18.2605C5.00456 18.4538 4.74225 18.5625 4.46875 18.5625C4.19525 18.5625 3.93294 18.4538 3.73955 18.2605C3.54615 18.0671 3.4375 17.8048 3.4375 17.5312C3.4375 17.2577 3.54615 16.9954 3.73955 16.802C3.93294 16.6087 4.19525 16.5 4.46875 16.5C4.74225 16.5 5.00456 16.6087 5.19795 16.802C5.39135 16.9954 5.5 17.2577 5.5 17.5312ZM4.46875 14.4375C4.60418 14.4375 4.73828 14.4108 4.86339 14.359C4.98851 14.3072 5.10219 14.2312 5.19795 14.1355C5.29371 14.0397 5.36968 13.926 5.4215 13.8009C5.47333 13.6758 5.5 13.5417 5.5 13.4062C5.5 13.2708 5.47333 13.1367 5.4215 13.0116C5.36968 12.8865 5.29371 12.7728 5.19795 12.677C5.10219 12.5813 4.98851 12.5053 4.86339 12.4535C4.73828 12.4017 4.60418 12.375 4.46875 12.375C4.19525 12.375 3.93294 12.4837 3.73955 12.677C3.54615 12.8704 3.4375 13.1327 3.4375 13.4062C3.4375 13.6798 3.54615 13.9421 3.73955 14.1355C3.93294 14.3288 4.19525 14.4375 4.46875 14.4375ZM18.5625 9.28125C18.5625 9.55475 18.4538 9.81706 18.2605 10.0105C18.0671 10.2038 17.8048 10.3125 17.5312 10.3125C17.2577 10.3125 16.9954 10.2038 16.802 10.0105C16.6087 9.81706 16.5 9.55475 16.5 9.28125C16.5 9.00775 16.6087 8.74544 16.802 8.55205C16.9954 8.35865 17.2577 8.25 17.5312 8.25C17.8048 8.25 18.0671 8.35865 18.2605 8.55205C18.4538 8.74544 18.5625 9.00775 18.5625 9.28125ZM17.5312 14.4375C17.6667 14.4375 17.8008 14.4108 17.9259 14.359C18.051 14.3072 18.1647 14.2312 18.2605 14.1355C18.3562 14.0397 18.4322 13.926 18.484 13.8009C18.5358 13.6758 18.5625 13.5417 18.5625 13.4062C18.5625 13.2708 18.5358 13.1367 18.484 13.0116C18.4322 12.8865 18.3562 12.7728 18.2605 12.677C18.1647 12.5813 18.051 12.5053 17.9259 12.4535C17.8008 12.4017 17.6667 12.375 17.5312 12.375C17.2577 12.375 16.9954 12.4837 16.802 12.677C16.6087 12.8704 16.5 13.1327 16.5 13.4062C16.5 13.6798 16.6087 13.9421 16.802 14.1355C16.9954 14.3288 17.2577 14.4375 17.5312 14.4375Z" fill="#1D3A76"/>
</svg>
