<svg width="47" height="35" viewBox="0 0 47 35" fill="none" xmlns="http://www.w3.org/2000/svg">
<path d="M42.7537 0.742188H4.77981C2.69125 0.742188 0.982422 2.45101 0.982422 4.53957V31.1213C0.982422 33.2098 2.69125 34.9187 4.77981 34.9187H42.7537C44.8422 34.9187 46.5321 33.2098 46.5321 31.1213L46.551 4.53957C46.551 2.45101 44.8422 0.742188 42.7537 0.742188ZM42.7537 31.1213H4.77981V4.53957H42.7537V31.1213ZM37.0766 29.2036L40.855 25.4252L37.9879 21.6278H34.8741C34.4564 20.4316 34.2095 19.1595 34.2095 17.8304C34.2095 16.5013 34.4564 15.2292 34.8741 14.033H37.9879L40.855 10.2357L37.0766 6.45725C34.5572 8.33853 32.7339 11.0033 31.8931 14.033C31.5514 15.2482 31.3615 16.5203 31.3615 17.8304C31.3615 19.1405 31.5514 20.4126 31.8931 21.6278C32.7389 24.6553 34.5612 27.3185 37.0766 29.2036ZM18.0707 17.8304C21.2035 17.8304 23.7667 15.2672 23.7667 12.1343C23.7667 9.0015 21.2035 6.43827 18.0707 6.43827C14.9378 6.43827 12.3746 9.0015 12.3746 12.1343C12.3746 15.2672 14.9378 17.8304 18.0707 17.8304ZM18.0707 10.2357C19.1149 10.2357 19.9693 11.0901 19.9693 12.1343C19.9693 13.1786 19.1149 14.033 18.0707 14.033C17.0264 14.033 16.172 13.1786 16.172 12.1343C16.172 11.0901 17.0264 10.2357 18.0707 10.2357ZM29.4628 26.5454C29.4628 21.7987 21.925 19.7481 18.0707 19.7481C14.2163 19.7481 6.6785 21.7987 6.6785 26.5454V29.2226H29.4628V26.5454ZM11.3873 25.4252C12.7923 24.4758 15.6024 23.5265 18.0707 23.5265C20.539 23.5265 23.33 24.4569 24.7541 25.4252H11.3873Z" fill="#699BA0"/>
</svg>
