<svg width="270" height="140" viewBox="0 0 270 140" fill="none" xmlns="http://www.w3.org/2000/svg">
<path d="M269.705 128.789C269.705 128.789 238.946 139.133 129.122 139.133C19.2976 139.133 0 129.131 0 129.131L269.705 128.789Z" fill="#E8E8E8"/>
<path d="M191.382 0.789062H122.872C119.989 0.789062 117.652 3.12593 117.652 6.0086V41.0894C117.652 43.972 119.989 46.3089 122.872 46.3089H191.382C194.265 46.3089 196.602 43.972 196.602 41.0894V6.0086C196.602 3.12593 194.265 0.789062 191.382 0.789062Z" fill="#141B1C"/>
<path d="M190.38 3.09814H128.678V43.9956H190.38V3.09814Z" fill="#FEFDF8"/>
<path d="M122.82 31.8821C122.821 32.1883 122.943 32.4818 123.16 32.6981C123.377 32.9144 123.67 33.0359 123.977 33.0359C124.283 33.0359 124.576 32.9144 124.793 32.6981C125.01 32.4818 125.132 32.1883 125.133 31.8821V14.9912C125.132 14.6847 125.01 14.391 124.793 14.1743C124.577 13.9576 124.283 13.8356 123.977 13.835C123.67 13.8356 123.376 13.9576 123.16 14.1743C122.943 14.391 122.821 14.6847 122.82 14.9912V31.8821Z" fill="#A0A0A0"/>
<path d="M192.689 31.2595C192.689 31.4488 192.765 31.6303 192.898 31.7642C193.032 31.898 193.214 31.9732 193.403 31.9732C193.592 31.9732 193.774 31.898 193.908 31.7642C194.042 31.6303 194.117 31.4488 194.117 31.2595V18.9886C194.117 18.7993 194.042 18.6178 193.908 18.4839C193.774 18.3501 193.592 18.2749 193.403 18.2749C193.214 18.2749 193.032 18.3501 192.898 18.4839C192.765 18.6178 192.689 18.7993 192.689 18.9886V31.2595Z" fill="#A0A0A0"/>
<path d="M191.813 15.3437C191.812 15.6431 191.9 15.936 192.067 16.1852C192.233 16.4344 192.469 16.6287 192.745 16.7435C193.022 16.8583 193.326 16.8885 193.62 16.8301C193.914 16.7718 194.184 16.6277 194.395 16.4159C194.607 16.2042 194.751 15.9344 194.81 15.6407C194.868 15.3469 194.838 15.0425 194.723 14.7659C194.608 14.4894 194.414 14.2531 194.165 14.087C193.915 13.9209 193.623 13.8325 193.323 13.833C192.923 13.833 192.538 13.9922 192.255 14.2755C191.972 14.5588 191.813 14.943 191.813 15.3437Z" fill="#A0A0A0"/>
<path d="M191.813 11.4496C191.812 11.7491 191.9 12.0419 192.067 12.2911C192.233 12.5403 192.469 12.7346 192.745 12.8494C193.022 12.9642 193.326 12.9944 193.62 12.9361C193.914 12.8778 194.184 12.7336 194.395 12.5219C194.607 12.3102 194.751 12.0403 194.81 11.7466C194.868 11.4529 194.838 11.1485 194.723 10.8719C194.608 10.5953 194.414 10.359 194.165 10.193C193.915 10.0269 193.623 9.9385 193.323 9.93897C192.923 9.93897 192.538 10.0981 192.255 10.3814C191.972 10.6647 191.813 11.049 191.813 11.4496Z" fill="#A0A0A0"/>
<path d="M160.531 19.6719C159.868 19.6719 159.219 19.8687 158.668 20.2372C158.116 20.6058 157.686 21.1297 157.432 21.7427C157.178 22.3556 157.112 23.03 157.241 23.6807C157.371 24.3314 157.69 24.9291 158.159 25.3982C158.629 25.8674 159.226 26.1868 159.877 26.3163C160.528 26.4457 161.202 26.3793 161.815 26.1254C162.428 25.8715 162.952 25.4416 163.32 24.8899C163.689 24.3383 163.886 23.6898 163.886 23.0263C163.886 22.5858 163.799 22.1496 163.63 21.7427C163.462 21.3357 163.215 20.9659 162.903 20.6544C162.592 20.3429 162.222 20.0958 161.815 19.9273C161.408 19.7587 160.972 19.6719 160.531 19.6719ZM169.479 16.3271H166.795C166.602 16.3183 166.415 16.2533 166.258 16.1401C166.101 16.0268 165.98 15.8703 165.91 15.6895L165.218 13.6079C165.147 13.4279 165.026 13.2721 164.869 13.1594C164.712 13.0467 164.526 12.9818 164.333 12.9727H156.72C156.527 12.9815 156.341 13.0463 156.184 13.159C156.026 13.2718 155.905 13.4277 155.835 13.6079L155.143 15.6895C155.074 15.8685 154.955 16.0238 154.8 16.1369C154.645 16.25 154.461 16.316 154.27 16.3271H151.584C150.991 16.3289 150.424 16.5651 150.005 16.9841C149.586 17.4031 149.35 17.9708 149.348 18.5633V28.6289C149.35 29.2214 149.586 29.7891 150.005 30.2081C150.424 30.627 150.991 30.8633 151.584 30.8651H169.479C170.071 30.8633 170.639 30.627 171.058 30.2081C171.477 29.7891 171.713 29.2214 171.715 28.6289V18.5538C171.711 17.9629 171.473 17.3977 171.055 16.9807C170.636 16.5638 170.07 16.3289 169.479 16.3271ZM160.531 28.6289C159.425 28.6303 158.344 28.3037 157.423 27.6904C156.503 27.0771 155.785 26.2047 155.36 25.1833C154.935 24.162 154.823 23.0377 155.037 21.9526C155.251 20.8674 155.782 19.8702 156.563 19.0869C157.344 18.3036 158.34 17.7694 159.425 17.552C160.509 17.3345 161.634 17.4435 162.656 17.8651C163.679 18.2868 164.553 19.0022 165.17 19.9209C165.786 20.8395 166.115 21.9202 166.117 23.0263C166.117 24.5085 165.529 25.93 164.482 26.9787C163.434 28.0274 162.013 28.6175 160.531 28.6194V28.6289ZM168.696 20.1263C168.541 20.1263 168.39 20.0804 168.261 19.9944C168.133 19.9084 168.032 19.7862 167.973 19.6432C167.914 19.5001 167.898 19.3428 167.928 19.1909C167.959 19.0391 168.033 18.8996 168.143 18.7902C168.252 18.6807 168.392 18.6062 168.543 18.576C168.695 18.5458 168.853 18.5613 168.996 18.6205C169.139 18.6798 169.261 18.7801 169.347 18.9088C169.433 19.0375 169.479 19.1888 169.479 19.3436C169.476 19.5496 169.393 19.7462 169.246 19.8909C169.1 20.0357 168.902 20.1168 168.696 20.1168V20.1263Z" fill="black"/>
<path d="M187.442 4.94067V4.2793H185.327V4.94067H184.275V7.74075H188.493V4.94067H187.442ZM186.383 7.21499C186.211 7.21312 186.043 7.16029 185.9 7.06317C185.757 6.96605 185.647 6.82895 185.582 6.6691C185.517 6.50924 185.5 6.33377 185.535 6.16471C185.569 5.99564 185.653 5.84053 185.775 5.71885C185.898 5.59718 186.053 5.51436 186.222 5.48081C186.392 5.44726 186.567 5.46446 186.727 5.53027C186.886 5.59608 187.023 5.70754 187.119 5.85068C187.215 5.99381 187.267 6.16222 187.268 6.33476C187.268 6.45035 187.244 6.5647 187.199 6.67125C187.155 6.77781 187.089 6.87449 187.007 6.95579C186.925 7.03708 186.827 7.1014 186.72 7.14506C186.613 7.18871 186.499 7.21086 186.383 7.21023" fill="white"/>
<path d="M189.307 21.6478C189.311 22.2272 189.142 22.7946 188.822 23.278C188.503 23.7614 188.047 24.1391 187.513 24.3631C186.978 24.5871 186.389 24.6474 185.821 24.5364C185.252 24.4254 184.729 24.148 184.318 23.7395C183.907 23.3309 183.627 22.8096 183.513 22.2415C183.398 21.6734 183.455 21.0842 183.676 20.5485C183.897 20.0129 184.272 19.5549 184.754 19.2326C185.235 18.9103 185.802 18.7383 186.381 18.7383C187.155 18.7364 187.898 19.0418 188.447 19.5874C188.995 20.1329 189.305 20.874 189.307 21.6478Z" fill="white"/>
<path d="M188.07 21.6477C188.074 21.9815 187.978 22.3089 187.795 22.5884C187.613 22.8678 187.351 23.0866 187.044 23.2171C186.737 23.3476 186.397 23.3838 186.069 23.3212C185.742 23.2585 185.44 23.0999 185.202 22.8653C184.965 22.6308 184.802 22.331 184.735 22.0039C184.668 21.6768 184.7 21.3372 184.827 21.0283C184.953 20.7194 185.169 20.455 185.446 20.2688C185.723 20.0826 186.049 19.9829 186.383 19.9824C186.827 19.9818 187.253 20.1563 187.569 20.4682C187.885 20.78 188.065 21.2039 188.07 21.6477Z" fill="#FF0000"/>
<path d="M181.439 3.09814V43.998" stroke="#909090" stroke-width="0.178425" stroke-miterlimit="10"/>
<path fill-rule="evenodd" clip-rule="evenodd" d="M208.328 97.9971L207.448 120.526L182.385 119.477L183.184 99.158L208.328 97.9971Z" fill="#FFE0C9"/>
<path fill-rule="evenodd" clip-rule="evenodd" d="M165.459 64.4747L172.834 84.0848C173.785 86.609 181.07 99.879 183.661 99.1368C186.251 98.3945 183.796 85.6312 182.783 83.1308L176.745 69.5848C173.281 61.8174 168.169 63.3613 165.459 64.4747Z" fill="#FFE0C9"/>
<path fill-rule="evenodd" clip-rule="evenodd" d="M190.845 38.1533L189.715 57.5564C192.229 54.3258 197.972 56.5596 198.227 60.9465C200.351 57.2805 205.928 58.9387 206.934 62.8711C209.449 59.8165 215.099 62.2716 214.854 66.7608L213.728 87.3106C213.412 93.0821 209.884 100.333 207.26 103.141C199.488 111.467 186.434 105.21 183.422 99.8979C181.074 95.7609 178.938 93.0678 179.064 89.9775L181.191 37.4991C181.488 30.255 191.249 32.2082 190.845 38.1533Z" fill="#FFE0C9"/>
<path d="M214.241 110.858H177.012V120.766H214.241V110.858Z" fill="#56D8CF"/>
<path fill-rule="evenodd" clip-rule="evenodd" d="M58.6109 38.3813L40 51.1114L54.2193 71.7754L71.0008 60.292L58.6109 38.3813Z" fill="#FFE0C9"/>
<path fill-rule="evenodd" clip-rule="evenodd" d="M109.797 56.8525L89.2759 61.0514C86.6328 61.5891 71.519 62.4788 70.7696 59.8881C70.0202 57.2973 82.1389 52.5798 84.7867 52.1063L99.4699 50.0128C107.887 48.8138 109.298 53.9643 109.797 56.8525Z" fill="#FFE0C9"/>
<path fill-rule="evenodd" clip-rule="evenodd" d="M118.583 21.3537L102.753 32.6325C104.152 28.7833 99.2059 25.1101 95.3543 27.2275C97.3312 23.4781 92.9586 19.6384 89.0927 20.8779C90.3441 17.1238 85.2578 13.6457 81.5894 16.2412L64.7865 28.1243C60.0665 31.4549 55.8033 38.3065 54.8184 42.0201C51.9042 53.0325 64.1441 60.7571 70.2463 60.4835C75.0043 60.2694 78.4158 60.6453 80.9637 58.8944L124.273 29.1735C130.25 25.0768 123.403 17.8494 118.583 21.3537Z" fill="#FFE0C9"/>
<path d="M40.0312 42.6961L51.7407 39.3179L58.2711 73.095L40.0312 79.1733V42.6961Z" fill="#56D8CF"/>
</svg>
