<svg width="41" height="42" viewBox="0 0 41 42" fill="none" xmlns="http://www.w3.org/2000/svg">
<path d="M1 15.5968C1 10.7429 1 8.31593 1.94467 6.46106C2.77556 4.8302 4.10133 3.50428 5.732 2.67329C7.58667 1.72852 10.0133 1.72852 14.8667 1.72852H26.1333C30.9867 1.72852 33.4133 1.72852 35.268 2.67329C36.8987 3.50428 38.2244 4.8302 39.0553 6.46106C40 8.31593 40 10.7429 40 15.5968V26.8647C40 31.7186 40 34.1456 39.0553 36.0004C38.2244 37.6313 36.8987 38.9572 35.268 39.7882C33.4133 40.733 30.9867 40.733 26.1333 40.733H14.8667C10.0133 40.733 7.58667 40.733 5.732 39.7882C4.10133 38.9572 2.77556 37.6313 1.94467 36.0004C1 34.1456 1 31.7186 1 26.8647V15.5968Z" stroke="#492828" stroke-width="2" stroke-linecap="round" stroke-linejoin="round"/>
<path d="M32.52 11.7295H9.48C9.3527 11.7295 9.23061 11.7849 9.14059 11.8837C9.05057 11.9824 9 12.1163 9 12.2559V31.2054C9 31.345 9.05057 31.4789 9.14059 31.5776C9.23061 31.6763 9.3527 31.7318 9.48 31.7318H32.52C32.6473 31.7318 32.7694 31.6763 32.8594 31.5776C32.9494 31.4789 33 31.345 33 31.2054V12.2559C33 12.1163 32.9494 11.9824 32.8594 11.8837C32.7694 11.7849 32.6473 11.7295 32.52 11.7295ZM15.72 24.3625V19.0988H26.28V24.3625H15.72ZM9.96 24.3625V19.0988H14.76V24.3625H9.96ZM27.24 19.0988H32.04V24.3625H27.24V19.0988ZM32.04 18.046H21.48V12.7822H32.04V18.046ZM20.52 12.7822V18.046H9.96V12.7822H20.52ZM9.96 25.4153H20.52V30.679H9.96V25.4153ZM21.48 30.679V25.4153H32.04V30.679H21.48Z" fill="#492828"/>
</svg>
