<svg width="25" height="28" viewBox="0 0 25 28" fill="none" xmlns="http://www.w3.org/2000/svg">
<path d="M14.0995 0.554199C13.7547 0.554199 13.424 0.691179 13.1802 0.935004C12.9364 1.17883 12.7995 1.50953 12.7995 1.85435C12.7995 2.19917 12.9364 2.52987 13.1802 2.77369C13.424 3.01752 13.7547 3.1545 14.0995 3.1545H15.3995V4.45464H12.7995C10.6772 4.6184 8.69485 5.57721 7.24877 7.13939C5.80269 8.70158 4.9994 10.752 4.99949 12.8809C4.99949 13.0533 5.06797 13.2187 5.18987 13.3406C5.31177 13.4625 5.4771 13.531 5.64949 13.531H9.54949C9.72188 13.531 9.88721 13.4625 10.0091 13.3406C10.131 13.2187 10.1995 13.0533 10.1995 12.8809C10.1993 12.1316 10.458 11.4052 10.9318 10.8248C11.4056 10.2443 12.0654 9.84541 12.7995 9.69554V9.65524H23.1995C23.5443 9.65524 23.8749 9.51826 24.1187 9.27443C24.3625 9.03061 24.4995 8.69991 24.4995 8.35509V5.75479C24.4995 5.40997 24.3625 5.07927 24.1187 4.83545C23.8749 4.59162 23.5443 4.45464 23.1995 4.45464H17.9995V3.1545H19.2995C19.6443 3.1545 19.9749 3.01752 20.2187 2.77369C20.4625 2.52987 20.5995 2.19917 20.5995 1.85435C20.5995 1.50953 20.4625 1.17883 20.2187 0.935004C19.9749 0.691179 19.6443 0.554199 19.2995 0.554199H14.0995ZM0.210287 16.286L3.40569 26.9342C3.48595 27.2022 3.65048 27.4371 3.87483 27.6041C4.09919 27.7711 4.37141 27.8612 4.65109 27.8612H10.4972C10.7764 27.8615 11.0482 27.7719 11.2725 27.6056C11.4968 27.4394 11.6616 27.2053 11.7426 26.9381L14.964 16.2665C15.0498 15.988 15.0216 15.6869 14.8854 15.4293C14.7493 15.1717 14.5163 14.9787 14.2379 14.8929C13.9595 14.807 13.6584 14.8353 13.4008 14.9715C13.1433 15.1076 12.9503 15.3406 12.8645 15.619L11.6061 19.6261C11.5646 19.758 11.4821 19.8733 11.3706 19.9552C11.259 20.037 11.1243 20.0811 10.986 20.0811H4.16619C4.02643 20.0812 3.89038 20.0362 3.77821 19.9528C3.66605 19.8694 3.58374 19.7521 3.54349 19.6183L2.34749 15.6437C2.30532 15.5034 2.23592 15.3727 2.14326 15.2592C2.0506 15.1457 1.93649 15.0515 1.80745 14.9821C1.6784 14.9127 1.53695 14.8693 1.39116 14.8546C1.24538 14.8398 1.09812 14.854 0.957787 14.8961C0.817456 14.9383 0.686805 15.0077 0.573293 15.1004C0.459782 15.1931 0.365632 15.3072 0.296221 15.4362C0.226809 15.5653 0.183494 15.7068 0.168749 15.8526C0.154005 15.9984 0.168119 16.1456 0.210287 16.286Z" fill="#492828"/>
</svg>
