<svg width="22" height="23" viewBox="0 0 22 23" fill="none" xmlns="http://www.w3.org/2000/svg">
<path d="M13.8569 14.7202L14.8102 16.7702C14.8102 16.7702 19.0958 17.6802 19.0958 19.8447C19.0958 21.3824 17.1891 21.3824 17.1891 21.3824H12.1113L9.61133 19.9935" stroke="#492828" stroke-width="1.5" stroke-linecap="round" stroke-linejoin="round"/>
<path d="M8.14319 14.7202L7.19096 16.7702C7.19096 16.7702 2.9043 17.6802 2.9043 19.8447C2.9043 21.3824 4.81096 21.3824 4.81096 21.3824H7.11096L9.61096 19.9935L12.6665 18.0491" stroke="#492828" stroke-width="1.5" stroke-linecap="round" stroke-linejoin="round"/>
<path d="M1 15.7447C1 15.7447 3.38111 15.2324 4.81 14.7202C6.23778 7.54379 10.5222 8.05607 11 8.05607C11.4778 8.05607 15.7622 7.54379 17.19 14.7202C18.6189 15.2313 21 15.7447 21 15.7447M11 5.82581C11.5894 5.82581 12.1546 5.59166 12.5713 5.17486C12.9881 4.75807 13.2222 4.19277 13.2222 3.60334C13.2222 3.0139 12.9881 2.4486 12.5713 2.03181C12.1546 1.61501 11.5894 1.38086 11 1.38086C10.4106 1.38086 9.8454 1.61501 9.42865 2.03181C9.0119 2.4486 8.77778 3.0139 8.77778 3.60334C8.77778 4.19277 9.0119 4.75807 9.42865 5.17486C9.8454 5.59166 10.4106 5.82581 11 5.82581Z" stroke="#492828" stroke-width="1.5" stroke-linecap="round" stroke-linejoin="round"/>
</svg>
